<svg width="44" height="66" viewBox="0 0 44 66" fill="none" xmlns="http://www.w3.org/2000/svg">
<path d="M6.7 9.30002C8.2464 9.30002 9.5 8.0464 9.5 6.5C9.5 4.9536 8.2464 3.70001 6.7 3.70001C5.1536 3.70001 3.9 4.9536 3.9 6.5C3.9 8.0464 5.1536 9.30002 6.7 9.30002Z" fill="#5EBFBC"/>
<path d="M6.7 20.6C8.2464 20.6 9.5 19.3464 9.5 17.8C9.5 16.2536 8.2464 15 6.7 15C5.1536 15 3.9 16.2536 3.9 17.8C3.9 19.3464 5.1536 20.6 6.7 20.6Z" fill="#5EBFBC"/>
<path d="M6.7 31.9001C8.2464 31.9001 9.5 30.6464 9.5 29.1C9.5 27.5536 8.2464 26.3 6.7 26.3C5.1536 26.3 3.9 27.5536 3.9 29.1C3.9 30.6464 5.1536 31.9001 6.7 31.9001Z" fill="#5EBFBC"/>
<path d="M6.7 43.3C8.2464 43.3 9.5 42.0464 9.5 40.5C9.5 38.9536 8.2464 37.7 6.7 37.7C5.1536 37.7 3.9 38.9536 3.9 40.5C3.9 42.0464 5.1536 43.3 6.7 43.3Z" fill="#5EBFBC"/>
<path d="M6.7 54.6C8.2464 54.6 9.5 53.3464 9.5 51.8C9.5 50.2536 8.2464 49 6.7 49C5.1536 49 3.9 50.2536 3.9 51.8C3.9 53.3464 5.1536 54.6 6.7 54.6Z" fill="#5EBFBC"/>
<path d="M6.7 65.9001C8.2464 65.9001 9.5 64.6464 9.5 63.1C9.5 61.5536 8.2464 60.3 6.7 60.3C5.1536 60.3 3.9 61.5536 3.9 63.1C3.9 64.6464 5.1536 65.9001 6.7 65.9001Z" fill="#5EBFBC"/>
<path d="M18 9.30002C19.5464 9.30002 20.8 8.0464 20.8 6.5C20.8 4.9536 19.5464 3.70001 18 3.70001C16.4536 3.70001 15.2 4.9536 15.2 6.5C15.2 8.0464 16.4536 9.30002 18 9.30002Z" fill="#5EBFBC"/>
<path d="M18 20.6C19.5464 20.6 20.8 19.3464 20.8 17.8C20.8 16.2536 19.5464 15 18 15C16.4536 15 15.2 16.2536 15.2 17.8C15.2 19.3464 16.4536 20.6 18 20.6Z" fill="#5EBFBC"/>
<path d="M18 31.9001C19.5464 31.9001 20.8 30.6464 20.8 29.1C20.8 27.5536 19.5464 26.3 18 26.3C16.4536 26.3 15.2 27.5536 15.2 29.1C15.2 30.6464 16.4536 31.9001 18 31.9001Z" fill="#5EBFBC"/>
<path d="M18 43.3C19.5464 43.3 20.8 42.0464 20.8 40.5C20.8 38.9536 19.5464 37.7 18 37.7C16.4536 37.7 15.2 38.9536 15.2 40.5C15.2 42.0464 16.4536 43.3 18 43.3Z" fill="#5EBFBC"/>
<path d="M18 54.6C19.5464 54.6 20.8 53.3464 20.8 51.8C20.8 50.2536 19.5464 49 18 49C16.4536 49 15.2 50.2536 15.2 51.8C15.2 53.3464 16.4536 54.6 18 54.6Z" fill="#5EBFBC"/>
<path d="M18 65.9001C19.5464 65.9001 20.8 64.6464 20.8 63.1C20.8 61.5536 19.5464 60.3 18 60.3C16.4536 60.3 15.2 61.5536 15.2 63.1C15.2 64.6464 16.4536 65.9001 18 65.9001Z" fill="#5EBFBC"/>
<path d="M29.3 9.30002C30.8464 9.30002 32.1 8.0464 32.1 6.5C32.1 4.9536 30.8464 3.70001 29.3 3.70001C27.7536 3.70001 26.5 4.9536 26.5 6.5C26.5 8.0464 27.7536 9.30002 29.3 9.30002Z" fill="#5EBFBC"/>
<path d="M29.3 20.6C30.8464 20.6 32.1 19.3464 32.1 17.8C32.1 16.2536 30.8464 15 29.3 15C27.7536 15 26.5 16.2536 26.5 17.8C26.5 19.3464 27.7536 20.6 29.3 20.6Z" fill="#5EBFBC"/>
<path d="M29.3 31.9001C30.8464 31.9001 32.1 30.6464 32.1 29.1C32.1 27.5536 30.8464 26.3 29.3 26.3C27.7536 26.3 26.5 27.5536 26.5 29.1C26.5 30.6464 27.7536 31.9001 29.3 31.9001Z" fill="#5EBFBC"/>
<path d="M29.3 43.3C30.8464 43.3 32.1 42.0464 32.1 40.5C32.1 38.9536 30.8464 37.7 29.3 37.7C27.7536 37.7 26.5 38.9536 26.5 40.5C26.5 42.0464 27.7536 43.3 29.3 43.3Z" fill="#5EBFBC"/>
<path d="M29.3 54.6C30.8464 54.6 32.1 53.3464 32.1 51.8C32.1 50.2536 30.8464 49 29.3 49C27.7536 49 26.5 50.2536 26.5 51.8C26.5 53.3464 27.7536 54.6 29.3 54.6Z" fill="#5EBFBC"/>
<path d="M29.3 65.9001C30.8464 65.9001 32.1 64.6464 32.1 63.1C32.1 61.5536 30.8464 60.3 29.3 60.3C27.7536 60.3 26.5 61.5536 26.5 63.1C26.5 64.6464 27.7536 65.9001 29.3 65.9001Z" fill="#5EBFBC"/>
<path d="M40.7 9.30002C42.2464 9.30002 43.5 8.0464 43.5 6.5C43.5 4.9536 42.2464 3.70001 40.7 3.70001C39.1536 3.70001 37.9 4.9536 37.9 6.5C37.9 8.0464 39.1536 9.30002 40.7 9.30002Z" fill="#5EBFBC"/>
<path d="M40.7 20.6C42.2464 20.6 43.5 19.3464 43.5 17.8C43.5 16.2536 42.2464 15 40.7 15C39.1536 15 37.9 16.2536 37.9 17.8C37.9 19.3464 39.1536 20.6 40.7 20.6Z" fill="#5EBFBC"/>
<path d="M40.7 31.9001C42.2464 31.9001 43.5 30.6464 43.5 29.1C43.5 27.5536 42.2464 26.3 40.7 26.3C39.1536 26.3 37.9 27.5536 37.9 29.1C37.9 30.6464 39.1536 31.9001 40.7 31.9001Z" fill="#5EBFBC"/>
<path d="M40.7 43.3C42.2464 43.3 43.5 42.0464 43.5 40.5C43.5 38.9536 42.2464 37.7 40.7 37.7C39.1536 37.7 37.9 38.9536 37.9 40.5C37.9 42.0464 39.1536 43.3 40.7 43.3Z" fill="#5EBFBC"/>
<path d="M40.7 54.6C42.2464 54.6 43.5 53.3464 43.5 51.8C43.5 50.2536 42.2464 49 40.7 49C39.1536 49 37.9 50.2536 37.9 51.8C37.9 53.3464 39.1536 54.6 40.7 54.6Z" fill="#5EBFBC"/>
<path d="M40.7 65.9001C42.2464 65.9001 43.5 64.6464 43.5 63.1C43.5 61.5536 42.2464 60.3 40.7 60.3C39.1536 60.3 37.9 61.5536 37.9 63.1C37.9 64.6464 39.1536 65.9001 40.7 65.9001Z" fill="#5EBFBC"/>
<path d="M3.8 6.60001C5.3464 6.60001 6.6 5.34642 6.6 3.80002C6.6 2.25362 5.3464 1 3.8 1C2.25361 1 1 2.25362 1 3.80002C1 5.34642 2.25361 6.60001 3.8 6.60001Z" stroke="black" stroke-miterlimit="10"/>
<path d="M3.8 17.9001C5.3464 17.9001 6.6 16.6464 6.6 15.1C6.6 13.5536 5.3464 12.3 3.8 12.3C2.25361 12.3 1 13.5536 1 15.1C1 16.6464 2.25361 17.9001 3.8 17.9001Z" stroke="black" stroke-miterlimit="10"/>
<path d="M3.8 29.3C5.3464 29.3 6.6 28.0464 6.6 26.5C6.6 24.9536 5.3464 23.7 3.8 23.7C2.25361 23.7 1 24.9536 1 26.5C1 28.0464 2.25361 29.3 3.8 29.3Z" stroke="black" stroke-miterlimit="10"/>
<path d="M3.8 40.6C5.3464 40.6 6.6 39.3464 6.6 37.8C6.6 36.2536 5.3464 35 3.8 35C2.25361 35 1 36.2536 1 37.8C1 39.3464 2.25361 40.6 3.8 40.6Z" stroke="black" stroke-miterlimit="10"/>
<path d="M3.8 51.9001C5.3464 51.9001 6.6 50.6464 6.6 49.1C6.6 47.5536 5.3464 46.3 3.8 46.3C2.25361 46.3 1 47.5536 1 49.1C1 50.6464 2.25361 51.9001 3.8 51.9001Z" stroke="black" stroke-miterlimit="10"/>
<path d="M3.8 63.3C5.3464 63.3 6.6 62.0464 6.6 60.5C6.6 58.9536 5.3464 57.7 3.8 57.7C2.25361 57.7 1 58.9536 1 60.5C1 62.0464 2.25361 63.3 3.8 63.3Z" stroke="black" stroke-miterlimit="10"/>
<path d="M15.2 6.60001C16.7464 6.60001 18 5.34642 18 3.80002C18 2.25362 16.7464 1 15.2 1C13.6536 1 12.4 2.25362 12.4 3.80002C12.4 5.34642 13.6536 6.60001 15.2 6.60001Z" stroke="black" stroke-miterlimit="10"/>
<path d="M15.2 17.9001C16.7464 17.9001 18 16.6464 18 15.1C18 13.5536 16.7464 12.3 15.2 12.3C13.6536 12.3 12.4 13.5536 12.4 15.1C12.4 16.6464 13.6536 17.9001 15.2 17.9001Z" stroke="black" stroke-miterlimit="10"/>
<path d="M15.2 29.3C16.7464 29.3 18 28.0464 18 26.5C18 24.9536 16.7464 23.7 15.2 23.7C13.6536 23.7 12.4 24.9536 12.4 26.5C12.4 28.0464 13.6536 29.3 15.2 29.3Z" stroke="black" stroke-miterlimit="10"/>
<path d="M15.2 40.6C16.7464 40.6 18 39.3464 18 37.8C18 36.2536 16.7464 35 15.2 35C13.6536 35 12.4 36.2536 12.4 37.8C12.4 39.3464 13.6536 40.6 15.2 40.6Z" stroke="black" stroke-miterlimit="10"/>
<path d="M15.2 51.9001C16.7464 51.9001 18 50.6464 18 49.1C18 47.5536 16.7464 46.3 15.2 46.3C13.6536 46.3 12.4 47.5536 12.4 49.1C12.4 50.6464 13.6536 51.9001 15.2 51.9001Z" stroke="black" stroke-miterlimit="10"/>
<path d="M15.2 63.3C16.7464 63.3 18 62.0464 18 60.5C18 58.9536 16.7464 57.7 15.2 57.7C13.6536 57.7 12.4 58.9536 12.4 60.5C12.4 62.0464 13.6536 63.3 15.2 63.3Z" stroke="black" stroke-miterlimit="10"/>
<path d="M26.5 6.60001C28.0464 6.60001 29.3 5.34642 29.3 3.80002C29.3 2.25362 28.0464 1 26.5 1C24.9536 1 23.7 2.25362 23.7 3.80002C23.7 5.34642 24.9536 6.60001 26.5 6.60001Z" stroke="black" stroke-miterlimit="10"/>
<path d="M26.5 17.9001C28.0464 17.9001 29.3 16.6464 29.3 15.1C29.3 13.5536 28.0464 12.3 26.5 12.3C24.9536 12.3 23.7 13.5536 23.7 15.1C23.7 16.6464 24.9536 17.9001 26.5 17.9001Z" stroke="black" stroke-miterlimit="10"/>
<path d="M26.5 29.3C28.0464 29.3 29.3 28.0464 29.3 26.5C29.3 24.9536 28.0464 23.7 26.5 23.7C24.9536 23.7 23.7 24.9536 23.7 26.5C23.7 28.0464 24.9536 29.3 26.5 29.3Z" stroke="black" stroke-miterlimit="10"/>
<path d="M26.5 40.6C28.0464 40.6 29.3 39.3464 29.3 37.8C29.3 36.2536 28.0464 35 26.5 35C24.9536 35 23.7 36.2536 23.7 37.8C23.7 39.3464 24.9536 40.6 26.5 40.6Z" stroke="black" stroke-miterlimit="10"/>
<path d="M26.5 51.9001C28.0464 51.9001 29.3 50.6464 29.3 49.1C29.3 47.5536 28.0464 46.3 26.5 46.3C24.9536 46.3 23.7 47.5536 23.7 49.1C23.7 50.6464 24.9536 51.9001 26.5 51.9001Z" stroke="black" stroke-miterlimit="10"/>
<path d="M26.5 63.3C28.0464 63.3 29.3 62.0464 29.3 60.5C29.3 58.9536 28.0464 57.7 26.5 57.7C24.9536 57.7 23.7 58.9536 23.7 60.5C23.7 62.0464 24.9536 63.3 26.5 63.3Z" stroke="black" stroke-miterlimit="10"/>
<path d="M37.8 6.60001C39.3464 6.60001 40.6 5.34642 40.6 3.80002C40.6 2.25362 39.3464 1 37.8 1C36.2536 1 35 2.25362 35 3.80002C35 5.34642 36.2536 6.60001 37.8 6.60001Z" stroke="black" stroke-miterlimit="10"/>
<path d="M37.8 17.9001C39.3464 17.9001 40.6 16.6464 40.6 15.1C40.6 13.5536 39.3464 12.3 37.8 12.3C36.2536 12.3 35 13.5536 35 15.1C35 16.6464 36.2536 17.9001 37.8 17.9001Z" stroke="black" stroke-miterlimit="10"/>
<path d="M37.8 29.3C39.3464 29.3 40.6 28.0464 40.6 26.5C40.6 24.9536 39.3464 23.7 37.8 23.7C36.2536 23.7 35 24.9536 35 26.5C35 28.0464 36.2536 29.3 37.8 29.3Z" stroke="black" stroke-miterlimit="10"/>
<path d="M37.8 40.6C39.3464 40.6 40.6 39.3464 40.6 37.8C40.6 36.2536 39.3464 35 37.8 35C36.2536 35 35 36.2536 35 37.8C35 39.3464 36.2536 40.6 37.8 40.6Z" stroke="black" stroke-miterlimit="10"/>
<path d="M37.8 51.9001C39.3464 51.9001 40.6 50.6464 40.6 49.1C40.6 47.5536 39.3464 46.3 37.8 46.3C36.2536 46.3 35 47.5536 35 49.1C35 50.6464 36.2536 51.9001 37.8 51.9001Z" stroke="black" stroke-miterlimit="10"/>
<path d="M37.8 63.3C39.3464 63.3 40.6 62.0464 40.6 60.5C40.6 58.9536 39.3464 57.7 37.8 57.7C36.2536 57.7 35 58.9536 35 60.5C35 62.0464 36.2536 63.3 37.8 63.3Z" stroke="black" stroke-miterlimit="10"/>
</svg>
