<svg width="490" height="230" viewBox="0 0 490 230" fill="none" xmlns="http://www.w3.org/2000/svg">
<path d="M29.5181 229.466L2.70166 194.286H50.5309L76.9471 229.466H79.7488L53.3326 194.286H99.561L125.977 229.466H128.779L102.363 194.286H148.591L175.007 229.466H177.809L151.393 194.286H197.621L224.037 229.466H226.839L200.423 194.286H246.651L273.067 229.466H275.869L249.453 194.286H295.681L322.097 229.466H324.899L298.483 194.286H344.711L371.127 229.466H373.929L347.513 194.286H393.741L420.157 229.466H422.959L396.543 194.286H442.771L469.187 229.466H471.989L444.172 192.421V147.78L487.999 206.146V229.599H490V61.8305L444.272 0H0V194.286L26.7164 229.466H29.5181ZM444.172 3.86436L487.999 62.8966V105.405L444.172 47.0392V3.86436ZM444.172 50.9036L487.999 109.269V153.91L444.172 95.5442V50.9036ZM444.172 99.2753L487.999 157.641V202.282L444.172 143.916V99.2753ZM1.90117 2.79833H442.171V191.621H1.90117V2.79833Z" fill="black"/>
<rect x="26.7109" y="226.973" width="463.289" height="2.4881" fill="black"/>
</svg>
