<svg width="273" height="468" viewBox="0 0 273 468" fill="none" xmlns="http://www.w3.org/2000/svg">
<path d="M225 419L271 466" stroke="black" stroke-width="2" stroke-miterlimit="10"/>
<path d="M225 361L271 410" stroke="black" stroke-width="2" stroke-miterlimit="10"/>
<path d="M225 299L271 347" stroke="black" stroke-width="2" stroke-miterlimit="10"/>
<path d="M225 239L271 290" stroke="black" stroke-width="2" stroke-miterlimit="10"/>
<path d="M225 180L271 228" stroke="black" stroke-width="2" stroke-miterlimit="10"/>
<path d="M225 119L271 167" stroke="black" stroke-width="2" stroke-miterlimit="10"/>
<path d="M225 60L271 109" stroke="black" stroke-width="2" stroke-miterlimit="10"/>
<path d="M166 419L218 466" stroke="black" stroke-width="2" stroke-miterlimit="10"/>
<path d="M113 419L137.5 442.5L162 466" stroke="black" stroke-width="2" stroke-miterlimit="10"/>
<path d="M53 419L105 466" stroke="black" stroke-width="2" stroke-miterlimit="10"/>
<path d="M225 1H1V419H225V1Z" stroke="black" stroke-width="2" stroke-miterlimit="10"/>
<path d="M271.195 466.221H52.8093L1 418.977V1H224.633L271.195 52.8372V466.221Z" stroke="black" stroke-width="2" stroke-miterlimit="10"/>
</svg>
