<svg width="55" height="53" viewBox="0 0 55 53" fill="none" xmlns="http://www.w3.org/2000/svg">
<path d="M54.7 4.99994H54.5999H43.2999H14.4999H13.9999L6.59991 12.9V24.2999H35.4V52.9999H46.7L54.5999 45.4999V45.0999H54.7V4.99994Z" fill="#5EBFBC"/>
<path d="M8.69995 12.5999H37.4999V41.2999H48.7999V1.19995H37.4999H8.69995V12.5999Z" stroke="black" stroke-miterlimit="10"/>
<path d="M0.699951 20.4999H29.4999V49.2999H40.9L48.7999 41.7999V1.19995H8.19995L0.699951 9.19995V20.4999Z" stroke="black" stroke-miterlimit="10"/>
<path d="M8.69995 12.5999L0.699951 20.4999" stroke="black" stroke-miterlimit="10"/>
<path d="M18.2999 12.5999L10.4 20.4999" stroke="black" stroke-miterlimit="10"/>
<path d="M27.4999 12.5999L19.5999 20.4999" stroke="black" stroke-miterlimit="10"/>
<path d="M37.2 12.5999L29.2 20.4999" stroke="black" stroke-miterlimit="10"/>
<path d="M37.2 41.4999L29.2 49.4" stroke="black" stroke-miterlimit="10"/>
<path d="M37.2 31.2999L29.2 39.2999" stroke="black" stroke-miterlimit="10"/>
<path d="M37.2 22.2L29.2 30.0999" stroke="black" stroke-miterlimit="10"/>
</svg>
