<svg width="100" height="50" viewBox="0 0 52 15" fill="none" xmlns="http://www.w3.org/2000/svg">
        <path d="M47.1 2.19997C45.9 0.999974 44.2 0.29998 42.5 0.29998C40.8 0.29998 39.1 0.999974 37.9 2.19997L37.7 2.39998C36.8 3.29998 35.7 3.69997 34.5 3.69997C33.3 3.69997 32.1 3.19998 31.3 2.39998L31.1 2.19997C29.9 0.999974 28.2 0.29998 26.5 0.29998C24.8 0.29998 23.1 0.999974 21.9 2.19997L21.8 2.29998C20.9 3.19998 19.8 3.59998 18.6 3.59998C17.4 3.59998 16.2 3.09998 15.4 2.29998L15.3 2.19997C12.8 -0.300026 8.6 -0.300026 6.1 2.19997L5.9 2.39998C5 3.29998 3.9 3.69997 2.7 3.69997C1.5 3.69997 0.299999 3.19998 -0.5 2.29998L-0.700001 2.09998C-3.3 -0.400024 -7.4 -0.400024 -9.9 2.09998L-10.1 2.29998C-11 3.19998 -12.1 3.59998 -13.3 3.59998C-14.5 3.59998 -15.7 3.09998 -16.5 2.29998L-16.7 2.09998C-16.8 1.99998 -16.9 1.89998 -17 1.79998V4.39998C-15.9 5.09998 -14.7 5.49998 -13.3 5.49998C-11.6 5.49998 -9.9 4.79998 -8.7 3.59998L-8.5 3.39998C-6.7 1.59998 -3.9 1.59998 -2.1 3.39998L-1.9 3.59998C-0.699999 4.79998 1 5.49998 2.7 5.49998C4.4 5.49998 6.1 4.79998 7.3 3.59998L7.5 3.39998C9.3 1.59998 12.1 1.59998 13.9 3.39998L14 3.49998C15.2 4.69998 16.9 5.39998 18.6 5.39998C20.3 5.39998 22 4.69998 23.2 3.49998L23.3 3.39998C24.2 2.49998 25.3 2.09998 26.5 2.09998C27.7 2.09998 28.9 2.59998 29.7 3.39998L29.9 3.59998C31.1 4.79998 32.8 5.49998 34.5 5.49998C36.2 5.49998 37.9 4.79998 39.1 3.59998L39.3 3.39998C40.2 2.49998 41.3 2.09998 42.5 2.09998C43.7 2.09998 44.9 2.59998 45.7 3.39998L49.7 7.39998L51.1 5.99998L47.1 2.19997Z" fill="#5EBFBC"/>
</svg>