<svg width="41" height="63" viewBox="0 0 41 63" fill="none" xmlns="http://www.w3.org/2000/svg">
<path d="M3.7 6.30002C5.2464 6.30002 6.5 5.0464 6.5 3.5C6.5 1.9536 5.2464 0.700012 3.7 0.700012C2.1536 0.700012 0.900002 1.9536 0.900002 3.5C0.900002 5.0464 2.1536 6.30002 3.7 6.30002Z" fill="#5EBFBC"/>
<path d="M3.7 17.6C5.2464 17.6 6.5 16.3464 6.5 14.8C6.5 13.2536 5.2464 12 3.7 12C2.1536 12 0.900002 13.2536 0.900002 14.8C0.900002 16.3464 2.1536 17.6 3.7 17.6Z" fill="#5EBFBC"/>
<path d="M3.7 28.9001C5.2464 28.9001 6.5 27.6464 6.5 26.1C6.5 24.5536 5.2464 23.3 3.7 23.3C2.1536 23.3 0.900002 24.5536 0.900002 26.1C0.900002 27.6464 2.1536 28.9001 3.7 28.9001Z" fill="#5EBFBC"/>
<path d="M3.7 40.3C5.2464 40.3 6.5 39.0464 6.5 37.5C6.5 35.9536 5.2464 34.7 3.7 34.7C2.1536 34.7 0.900002 35.9536 0.900002 37.5C0.900002 39.0464 2.1536 40.3 3.7 40.3Z" fill="#5EBFBC"/>
<path d="M3.7 51.6C5.2464 51.6 6.5 50.3464 6.5 48.8C6.5 47.2536 5.2464 46 3.7 46C2.1536 46 0.900002 47.2536 0.900002 48.8C0.900002 50.3464 2.1536 51.6 3.7 51.6Z" fill="#5EBFBC"/>
<path d="M3.7 62.9001C5.2464 62.9001 6.5 61.6464 6.5 60.1C6.5 58.5536 5.2464 57.3 3.7 57.3C2.1536 57.3 0.900002 58.5536 0.900002 60.1C0.900002 61.6464 2.1536 62.9001 3.7 62.9001Z" fill="#5EBFBC"/>
<path d="M15 6.30002C16.5464 6.30002 17.8 5.0464 17.8 3.5C17.8 1.9536 16.5464 0.700012 15 0.700012C13.4536 0.700012 12.2 1.9536 12.2 3.5C12.2 5.0464 13.4536 6.30002 15 6.30002Z" fill="#5EBFBC"/>
<path d="M15 17.6C16.5464 17.6 17.8 16.3464 17.8 14.8C17.8 13.2536 16.5464 12 15 12C13.4536 12 12.2 13.2536 12.2 14.8C12.2 16.3464 13.4536 17.6 15 17.6Z" fill="#5EBFBC"/>
<path d="M15 28.9001C16.5464 28.9001 17.8 27.6464 17.8 26.1C17.8 24.5536 16.5464 23.3 15 23.3C13.4536 23.3 12.2 24.5536 12.2 26.1C12.2 27.6464 13.4536 28.9001 15 28.9001Z" fill="#5EBFBC"/>
<path d="M15 40.3C16.5464 40.3 17.8 39.0464 17.8 37.5C17.8 35.9536 16.5464 34.7 15 34.7C13.4536 34.7 12.2 35.9536 12.2 37.5C12.2 39.0464 13.4536 40.3 15 40.3Z" fill="#5EBFBC"/>
<path d="M15 51.6C16.5464 51.6 17.8 50.3464 17.8 48.8C17.8 47.2536 16.5464 46 15 46C13.4536 46 12.2 47.2536 12.2 48.8C12.2 50.3464 13.4536 51.6 15 51.6Z" fill="#5EBFBC"/>
<path d="M15 62.9001C16.5464 62.9001 17.8 61.6464 17.8 60.1C17.8 58.5536 16.5464 57.3 15 57.3C13.4536 57.3 12.2 58.5536 12.2 60.1C12.2 61.6464 13.4536 62.9001 15 62.9001Z" fill="#5EBFBC"/>
<path d="M26.3 6.30002C27.8464 6.30002 29.1 5.0464 29.1 3.5C29.1 1.9536 27.8464 0.700012 26.3 0.700012C24.7536 0.700012 23.5 1.9536 23.5 3.5C23.5 5.0464 24.7536 6.30002 26.3 6.30002Z" fill="#5EBFBC"/>
<path d="M26.3 17.6C27.8464 17.6 29.1 16.3464 29.1 14.8C29.1 13.2536 27.8464 12 26.3 12C24.7536 12 23.5 13.2536 23.5 14.8C23.5 16.3464 24.7536 17.6 26.3 17.6Z" fill="#5EBFBC"/>
<path d="M26.3 28.9001C27.8464 28.9001 29.1 27.6464 29.1 26.1C29.1 24.5536 27.8464 23.3 26.3 23.3C24.7536 23.3 23.5 24.5536 23.5 26.1C23.5 27.6464 24.7536 28.9001 26.3 28.9001Z" fill="#5EBFBC"/>
<path d="M26.3 40.3C27.8464 40.3 29.1 39.0464 29.1 37.5C29.1 35.9536 27.8464 34.7 26.3 34.7C24.7536 34.7 23.5 35.9536 23.5 37.5C23.5 39.0464 24.7536 40.3 26.3 40.3Z" fill="#5EBFBC"/>
<path d="M26.3 51.6C27.8464 51.6 29.1 50.3464 29.1 48.8C29.1 47.2536 27.8464 46 26.3 46C24.7536 46 23.5 47.2536 23.5 48.8C23.5 50.3464 24.7536 51.6 26.3 51.6Z" fill="#5EBFBC"/>
<path d="M26.3 62.9001C27.8464 62.9001 29.1 61.6464 29.1 60.1C29.1 58.5536 27.8464 57.3 26.3 57.3C24.7536 57.3 23.5 58.5536 23.5 60.1C23.5 61.6464 24.7536 62.9001 26.3 62.9001Z" fill="#5EBFBC"/>
<path d="M37.7 6.30002C39.2464 6.30002 40.5 5.0464 40.5 3.5C40.5 1.9536 39.2464 0.700012 37.7 0.700012C36.1536 0.700012 34.9 1.9536 34.9 3.5C34.9 5.0464 36.1536 6.30002 37.7 6.30002Z" fill="#5EBFBC"/>
<path d="M37.7 17.6C39.2464 17.6 40.5 16.3464 40.5 14.8C40.5 13.2536 39.2464 12 37.7 12C36.1536 12 34.9 13.2536 34.9 14.8C34.9 16.3464 36.1536 17.6 37.7 17.6Z" fill="#5EBFBC"/>
<path d="M37.7 28.9001C39.2464 28.9001 40.5 27.6464 40.5 26.1C40.5 24.5536 39.2464 23.3 37.7 23.3C36.1536 23.3 34.9 24.5536 34.9 26.1C34.9 27.6464 36.1536 28.9001 37.7 28.9001Z" fill="#5EBFBC"/>
<path d="M37.7 40.3C39.2464 40.3 40.5 39.0464 40.5 37.5C40.5 35.9536 39.2464 34.7 37.7 34.7C36.1536 34.7 34.9 35.9536 34.9 37.5C34.9 39.0464 36.1536 40.3 37.7 40.3Z" fill="#5EBFBC"/>
<path d="M37.7 51.6C39.2464 51.6 40.5 50.3464 40.5 48.8C40.5 47.2536 39.2464 46 37.7 46C36.1536 46 34.9 47.2536 34.9 48.8C34.9 50.3464 36.1536 51.6 37.7 51.6Z" fill="#5EBFBC"/>
<path d="M37.7 62.9001C39.2464 62.9001 40.5 61.6464 40.5 60.1C40.5 58.5536 39.2464 57.3 37.7 57.3C36.1536 57.3 34.9 58.5536 34.9 60.1C34.9 61.6464 36.1536 62.9001 37.7 62.9001Z" fill="#5EBFBC"/>
</svg>
