<svg width="9" height="12" viewBox="0 0 9 12" fill="none" xmlns="http://www.w3.org/2000/svg">
<path d="M4.25965 11.7457C4.16284 11.7457 4.06603 11.7458 3.96922 11.6458C-1.38488e-06 8.84575 0 4.64572 0 4.54572C0 2.14572 1.9362 0.145752 4.25965 0.145752C6.5831 0.145752 8.5193 2.14572 8.5193 4.54572C8.5193 4.74572 8.5193 8.84575 4.55008 11.6458C4.45327 11.7458 4.35646 11.7457 4.25965 11.7457ZM4.25965 1.14575C2.42025 1.14575 0.968103 2.64572 0.968103 4.54572C0.968103 4.64572 1.06491 8.14575 4.25965 10.6458C7.5512 8.14575 7.5512 4.54572 7.5512 4.54572C7.64801 2.64572 6.09904 1.14575 4.25965 1.14575ZM4.25965 6.74573C3.09792 6.74573 2.12982 5.74572 2.12982 4.54572C2.12982 3.34572 3.09792 2.34576 4.25965 2.34576C5.42137 2.34576 6.38948 3.34572 6.38948 4.54572C6.38948 5.74572 5.42137 6.74573 4.25965 6.74573ZM4.25965 3.34576C3.58198 3.34576 3.09793 3.84572 3.09793 4.54572C3.09793 5.24572 3.58198 5.74573 4.25965 5.74573C4.93732 5.74573 5.42138 5.24572 5.42138 4.54572C5.42138 3.84572 4.93732 3.34576 4.25965 3.34576Z" fill="black"/>
</svg>
