<svg width="490" height="230" viewBox="0 0 490 230" fill="none" xmlns="http://www.w3.org/2000/svg">
<path d="M9.7 13.8521C10.6389 13.8521 11.4 13.2136 11.4 12.426C11.4 11.6385 10.6389 11 9.7 11C8.76111 11 8 11.6385 8 12.426C8 13.2136 8.76111 13.8521 9.7 13.8521Z" fill="black"/>
<path d="M30.5 13.8521C31.4389 13.8521 32.2 13.2136 32.2 12.426C32.2 11.6385 31.4389 11 30.5 11C29.5611 11 28.8 11.6385 28.8 12.426C28.8 13.2136 29.5611 13.8521 30.5 13.8521Z" fill="black"/>
<path d="M51.3 13.8521C52.2389 13.8521 53 13.2136 53 12.426C53 11.6385 52.2389 11 51.3 11C50.3611 11 49.6 11.6385 49.6 12.426C49.6 13.2136 50.3611 13.8521 51.3 13.8521Z" fill="black"/>
<path d="M72.2 13.8521C73.1389 13.8521 73.9 13.2136 73.9 12.426C73.9 11.6385 73.1389 11 72.2 11C71.2611 11 70.5 11.6385 70.5 12.426C70.5 13.2136 71.2611 13.8521 72.2 13.8521Z" fill="black"/>
<path d="M93 13.8521C93.9389 13.8521 94.7 13.2136 94.7 12.426C94.7 11.6385 93.9389 11 93 11C92.0611 11 91.3 11.6385 91.3 12.426C91.3 13.2136 92.0611 13.8521 93 13.8521Z" fill="black"/>
<path d="M113.8 13.8521C114.739 13.8521 115.5 13.2136 115.5 12.426C115.5 11.6385 114.739 11 113.8 11C112.861 11 112.1 11.6385 112.1 12.426C112.1 13.2136 112.861 13.8521 113.8 13.8521Z" fill="black"/>
<path d="M134.6 13.8521C135.539 13.8521 136.3 13.2136 136.3 12.426C136.3 11.6385 135.539 11 134.6 11C133.661 11 132.9 11.6385 132.9 12.426C132.9 13.2136 133.661 13.8521 134.6 13.8521Z" fill="black"/>
<path d="M155.4 13.8521C156.339 13.8521 157.1 13.2136 157.1 12.426C157.1 11.6385 156.339 11 155.4 11C154.461 11 153.7 11.6385 153.7 12.426C153.7 13.2136 154.461 13.8521 155.4 13.8521Z" fill="black"/>
<path d="M176.2 13.8521C177.139 13.8521 177.9 13.2136 177.9 12.426C177.9 11.6385 177.139 11 176.2 11C175.261 11 174.5 11.6385 174.5 12.426C174.5 13.2136 175.261 13.8521 176.2 13.8521Z" fill="black"/>
<path d="M197 13.8521C197.939 13.8521 198.7 13.2136 198.7 12.426C198.7 11.6385 197.939 11 197 11C196.061 11 195.3 11.6385 195.3 12.426C195.3 13.2136 196.061 13.8521 197 13.8521Z" fill="black"/>
<path d="M217.8 13.8521C218.739 13.8521 219.5 13.2136 219.5 12.426C219.5 11.6385 218.739 11 217.8 11C216.861 11 216.1 11.6385 216.1 12.426C216.1 13.2136 216.861 13.8521 217.8 13.8521Z" fill="black"/>
<path d="M238.6 13.8521C239.539 13.8521 240.3 13.2136 240.3 12.426C240.3 11.6385 239.539 11 238.6 11C237.661 11 236.9 11.6385 236.9 12.426C236.9 13.2136 237.661 13.8521 238.6 13.8521Z" fill="black"/>
<path d="M259.5 13.8521C260.439 13.8521 261.2 13.2136 261.2 12.426C261.2 11.6385 260.439 11 259.5 11C258.561 11 257.8 11.6385 257.8 12.426C257.8 13.2136 258.561 13.8521 259.5 13.8521Z" fill="black"/>
<path d="M280.3 13.8521C281.239 13.8521 282 13.2136 282 12.426C282 11.6385 281.239 11 280.3 11C279.361 11 278.6 11.6385 278.6 12.426C278.6 13.2136 279.361 13.8521 280.3 13.8521Z" fill="black"/>
<path d="M301.1 13.8521C302.039 13.8521 302.8 13.2136 302.8 12.426C302.8 11.6385 302.039 11 301.1 11C300.161 11 299.4 11.6385 299.4 12.426C299.4 13.2136 300.161 13.8521 301.1 13.8521Z" fill="black"/>
<path d="M321.9 13.8521C322.839 13.8521 323.6 13.2136 323.6 12.426C323.6 11.6385 322.839 11 321.9 11C320.961 11 320.2 11.6385 320.2 12.426C320.2 13.2136 320.961 13.8521 321.9 13.8521Z" fill="black"/>
<path d="M342.7 13.8521C343.639 13.8521 344.4 13.2136 344.4 12.426C344.4 11.6385 343.639 11 342.7 11C341.761 11 341 11.6385 341 12.426C341 13.2136 341.761 13.8521 342.7 13.8521Z" fill="black"/>
<path d="M363.5 13.8521C364.439 13.8521 365.2 13.2136 365.2 12.426C365.2 11.6385 364.439 11 363.5 11C362.561 11 361.8 11.6385 361.8 12.426C361.8 13.2136 362.561 13.8521 363.5 13.8521Z" fill="black"/>
<path d="M384.3 13.8521C385.239 13.8521 386 13.2136 386 12.426C386 11.6385 385.239 11 384.3 11C383.361 11 382.6 11.6385 382.6 12.426C382.6 13.2136 383.361 13.8521 384.3 13.8521Z" fill="black"/>
<path d="M405.1 13.8521C406.039 13.8521 406.8 13.2136 406.8 12.426C406.8 11.6385 406.039 11 405.1 11C404.161 11 403.4 11.6385 403.4 12.426C403.4 13.2136 404.161 13.8521 405.1 13.8521Z" fill="black"/>
<path d="M425.9 13.8521C426.839 13.8521 427.6 13.2136 427.6 12.426C427.6 11.6385 426.839 11 425.9 11C424.961 11 424.2 11.6385 424.2 12.426C424.2 13.2136 424.961 13.8521 425.9 13.8521Z" fill="black"/>
<path d="M425.9 34.0679C426.839 34.0679 427.6 33.4295 427.6 32.6419C427.6 31.8544 426.839 31.2159 425.9 31.2159C424.961 31.2159 424.2 31.8544 424.2 32.6419C424.2 33.4295 424.961 34.0679 425.9 34.0679Z" fill="black"/>
<path d="M425.9 51.2641C426.839 51.2641 427.6 50.6256 427.6 49.838C427.6 49.0505 426.839 48.412 425.9 48.412C424.961 48.412 424.2 49.0505 424.2 49.838C424.2 50.6256 424.961 51.2641 425.9 51.2641Z" fill="black"/>
<path d="M425.9 68.4602C426.839 68.4602 427.6 67.8217 427.6 67.0341C427.6 66.2466 426.839 65.6082 425.9 65.6082C424.961 65.6082 424.2 66.2466 424.2 67.0341C424.2 67.8217 424.961 68.4602 425.9 68.4602Z" fill="black"/>
<path d="M425.9 85.6563C426.839 85.6563 427.6 85.0178 427.6 84.2302C427.6 83.4427 426.839 82.8043 425.9 82.8043C424.961 82.8043 424.2 83.4427 424.2 84.2302C424.2 85.0178 424.961 85.6563 425.9 85.6563Z" fill="black"/>
<path d="M425.9 102.852C426.839 102.852 427.6 102.214 427.6 101.426C427.6 100.639 426.839 100 425.9 100C424.961 100 424.2 100.639 424.2 101.426C424.2 102.214 424.961 102.852 425.9 102.852Z" fill="black"/>
<path d="M9.7 34.0679C10.6389 34.0679 11.4 33.4295 11.4 32.6419C11.4 31.8544 10.6389 31.2159 9.7 31.2159C8.76111 31.2159 8 31.8544 8 32.6419C8 33.4295 8.76111 34.0679 9.7 34.0679Z" fill="black"/>
<path d="M9.7 51.2641C10.6389 51.2641 11.4 50.6256 11.4 49.838C11.4 49.0505 10.6389 48.412 9.7 48.412C8.76111 48.412 8 49.0505 8 49.838C8 50.6256 8.76111 51.2641 9.7 51.2641Z" fill="black"/>
<path d="M9.7 68.4602C10.6389 68.4602 11.4 67.8217 11.4 67.0341C11.4 66.2466 10.6389 65.6082 9.7 65.6082C8.76111 65.6082 8 66.2466 8 67.0341C8 67.8217 8.76111 68.4602 9.7 68.4602Z" fill="black"/>
<path d="M9.7 85.6563C10.6389 85.6563 11.4 85.0178 11.4 84.2302C11.4 83.4427 10.6389 82.8043 9.7 82.8043C8.76111 82.8043 8 83.4427 8 84.2302C8 85.0178 8.76111 85.6563 9.7 85.6563Z" fill="black"/>
<path d="M9.7 102.852C10.6389 102.852 11.4 102.214 11.4 101.426C11.4 100.639 10.6389 100 9.7 100C8.76111 100 8 100.639 8 101.426C8 102.214 8.76111 102.852 9.7 102.852Z" fill="black"/>
<path d="M9.7 102.685C10.6389 102.685 11.4 102.046 11.4 101.259C11.4 100.471 10.6389 99.8326 9.7 99.8326C8.76111 99.8326 8 100.471 8 101.259C8 102.046 8.76111 102.685 9.7 102.685Z" fill="black"/>
<path d="M9.7 119.881C10.6389 119.881 11.4 119.242 11.4 118.455C11.4 117.667 10.6389 117.029 9.7 117.029C8.76111 117.029 8 117.667 8 118.455C8 119.242 8.76111 119.881 9.7 119.881Z" fill="black"/>
<path d="M9.7 137.077C10.6389 137.077 11.4 136.438 11.4 135.651C11.4 134.863 10.6389 134.225 9.7 134.225C8.76111 134.225 8 134.863 8 135.651C8 136.438 8.76111 137.077 9.7 137.077Z" fill="black"/>
<path d="M9.7 154.273C10.6389 154.273 11.4 153.634 11.4 152.847C11.4 152.059 10.6389 151.421 9.7 151.421C8.76111 151.421 8 152.059 8 152.847C8 153.634 8.76111 154.273 9.7 154.273Z" fill="black"/>
<path d="M9.7 171.469C10.6389 171.469 11.4 170.83 11.4 170.043C11.4 169.255 10.6389 168.617 9.7 168.617C8.76111 168.617 8 169.255 8 170.043C8 170.83 8.76111 171.469 9.7 171.469Z" fill="black"/>
<path d="M425.5 102.685C426.439 102.685 427.2 102.046 427.2 101.259C427.2 100.471 426.439 99.8326 425.5 99.8326C424.561 99.8326 423.8 100.471 423.8 101.259C423.8 102.046 424.561 102.685 425.5 102.685Z" fill="black"/>
<path d="M425.5 119.881C426.439 119.881 427.2 119.242 427.2 118.455C427.2 117.667 426.439 117.029 425.5 117.029C424.561 117.029 423.8 117.667 423.8 118.455C423.8 119.242 424.561 119.881 425.5 119.881Z" fill="black"/>
<path d="M425.5 137.077C426.439 137.077 427.2 136.438 427.2 135.651C427.2 134.863 426.439 134.225 425.5 134.225C424.561 134.225 423.8 134.863 423.8 135.651C423.8 136.438 424.561 137.077 425.5 137.077Z" fill="black"/>
<path d="M425.5 154.273C426.439 154.273 427.2 153.634 427.2 152.847C427.2 152.059 426.439 151.421 425.5 151.421C424.561 151.421 423.8 152.059 423.8 152.847C423.8 153.634 424.561 154.273 425.5 154.273Z" fill="black"/>
<path d="M425.5 171.469C426.439 171.469 427.2 170.83 427.2 170.043C427.2 169.255 426.439 168.617 425.5 168.617C424.561 168.617 423.8 169.255 423.8 170.043C423.8 170.83 424.561 171.469 425.5 171.469Z" fill="black"/>
<path d="M9.7 184.89C10.6389 184.89 11.4 184.252 11.4 183.464C11.4 182.677 10.6389 182.038 9.7 182.038C8.76111 182.038 8 182.677 8 183.464C8 184.252 8.76111 184.89 9.7 184.89Z" fill="black"/>
<path d="M30.5 184.89C31.4389 184.89 32.2 184.252 32.2 183.464C32.2 182.677 31.4389 182.038 30.5 182.038C29.5611 182.038 28.8 182.677 28.8 183.464C28.8 184.252 29.5611 184.89 30.5 184.89Z" fill="black"/>
<path d="M51.3 184.89C52.2389 184.89 53 184.252 53 183.464C53 182.677 52.2389 182.038 51.3 182.038C50.3611 182.038 49.6 182.677 49.6 183.464C49.6 184.252 50.3611 184.89 51.3 184.89Z" fill="black"/>
<path d="M72.2 184.89C73.1389 184.89 73.9 184.252 73.9 183.464C73.9 182.677 73.1389 182.038 72.2 182.038C71.2611 182.038 70.5 182.677 70.5 183.464C70.5 184.252 71.2611 184.89 72.2 184.89Z" fill="black"/>
<path d="M93 184.89C93.9389 184.89 94.7 184.252 94.7 183.464C94.7 182.677 93.9389 182.038 93 182.038C92.0611 182.038 91.3 182.677 91.3 183.464C91.3 184.252 92.0611 184.89 93 184.89Z" fill="black"/>
<path d="M113.8 184.89C114.739 184.89 115.5 184.252 115.5 183.464C115.5 182.677 114.739 182.038 113.8 182.038C112.861 182.038 112.1 182.677 112.1 183.464C112.1 184.252 112.861 184.89 113.8 184.89Z" fill="black"/>
<path d="M134.6 184.89C135.539 184.89 136.3 184.252 136.3 183.464C136.3 182.677 135.539 182.038 134.6 182.038C133.661 182.038 132.9 182.677 132.9 183.464C132.9 184.252 133.661 184.89 134.6 184.89Z" fill="black"/>
<path d="M155.4 184.89C156.339 184.89 157.1 184.252 157.1 183.464C157.1 182.677 156.339 182.038 155.4 182.038C154.461 182.038 153.7 182.677 153.7 183.464C153.7 184.252 154.461 184.89 155.4 184.89Z" fill="black"/>
<path d="M176.2 184.89C177.139 184.89 177.9 184.252 177.9 183.464C177.9 182.677 177.139 182.038 176.2 182.038C175.261 182.038 174.5 182.677 174.5 183.464C174.5 184.252 175.261 184.89 176.2 184.89Z" fill="black"/>
<path d="M197 184.89C197.939 184.89 198.7 184.252 198.7 183.464C198.7 182.677 197.939 182.038 197 182.038C196.061 182.038 195.3 182.677 195.3 183.464C195.3 184.252 196.061 184.89 197 184.89Z" fill="black"/>
<path d="M217.8 184.89C218.739 184.89 219.5 184.252 219.5 183.464C219.5 182.677 218.739 182.038 217.8 182.038C216.861 182.038 216.1 182.677 216.1 183.464C216.1 184.252 216.861 184.89 217.8 184.89Z" fill="black"/>
<path d="M238.6 184.89C239.539 184.89 240.3 184.252 240.3 183.464C240.3 182.677 239.539 182.038 238.6 182.038C237.661 182.038 236.9 182.677 236.9 183.464C236.9 184.252 237.661 184.89 238.6 184.89Z" fill="black"/>
<path d="M259.5 184.89C260.439 184.89 261.2 184.252 261.2 183.464C261.2 182.677 260.439 182.038 259.5 182.038C258.561 182.038 257.8 182.677 257.8 183.464C257.8 184.252 258.561 184.89 259.5 184.89Z" fill="black"/>
<path d="M280.3 184.89C281.239 184.89 282 184.252 282 183.464C282 182.677 281.239 182.038 280.3 182.038C279.361 182.038 278.6 182.677 278.6 183.464C278.6 184.252 279.361 184.89 280.3 184.89Z" fill="black"/>
<path d="M301.1 184.89C302.039 184.89 302.8 184.252 302.8 183.464C302.8 182.677 302.039 182.038 301.1 182.038C300.161 182.038 299.4 182.677 299.4 183.464C299.4 184.252 300.161 184.89 301.1 184.89Z" fill="black"/>
<path d="M321.9 184.89C322.839 184.89 323.6 184.252 323.6 183.464C323.6 182.677 322.839 182.038 321.9 182.038C320.961 182.038 320.2 182.677 320.2 183.464C320.2 184.252 320.961 184.89 321.9 184.89Z" fill="black"/>
<path d="M342.7 184.89C343.639 184.89 344.4 184.252 344.4 183.464C344.4 182.677 343.639 182.038 342.7 182.038C341.761 182.038 341 182.677 341 183.464C341 184.252 341.761 184.89 342.7 184.89Z" fill="black"/>
<path d="M363.5 184.89C364.439 184.89 365.2 184.252 365.2 183.464C365.2 182.677 364.439 182.038 363.5 182.038C362.561 182.038 361.8 182.677 361.8 183.464C361.8 184.252 362.561 184.89 363.5 184.89Z" fill="black"/>
<path d="M384.3 184.89C385.239 184.89 386 184.252 386 183.464C386 182.677 385.239 182.038 384.3 182.038C383.361 182.038 382.6 182.677 382.6 183.464C382.6 184.252 383.361 184.89 384.3 184.89Z" fill="black"/>
<path d="M405.1 184.89C406.039 184.89 406.8 184.252 406.8 183.464C406.8 182.677 406.039 182.038 405.1 182.038C404.161 182.038 403.4 182.677 403.4 183.464C403.4 184.252 404.161 184.89 405.1 184.89Z" fill="black"/>
<path d="M425.9 184.89C426.839 184.89 427.6 184.252 427.6 183.464C427.6 182.677 426.839 182.038 425.9 182.038C424.961 182.038 424.2 182.677 424.2 183.464C424.2 184.252 424.961 184.89 425.9 184.89Z" fill="black"/>
<path d="M29.5181 229.466L2.70166 194.286H50.5309L76.9471 229.466H79.7488L53.3326 194.286H99.561L125.977 229.466H128.779L102.363 194.286H148.591L175.007 229.466H177.809L151.393 194.286H197.621L224.037 229.466H226.839L200.423 194.286H246.651L273.067 229.466H275.869L249.453 194.286H295.681L322.097 229.466H324.899L298.483 194.286H344.711L371.127 229.466H373.929L347.513 194.286H393.741L420.157 229.466H422.959L396.543 194.286H442.771L469.187 229.466H471.989L444.172 192.421V147.78L487.999 206.146V229.599H490V61.8305L444.272 0H0V194.286L26.7164 229.466H29.5181ZM444.172 3.86436L487.999 62.8966V105.405L444.172 47.0392V3.86436ZM444.172 50.9036L487.999 109.269V153.91L444.172 95.5442V50.9036ZM444.172 99.2753L487.999 157.641V202.282L444.172 143.916V99.2753ZM1.90117 2.79833H442.171V191.621H1.90117V2.79833Z" fill="black"/>
<rect x="26.7109" y="226.973" width="463.289" height="2.4881" fill="black"/>
</svg>
