<svg width="13" height="9" viewBox="0 0 13 9" fill="none" xmlns="http://www.w3.org/2000/svg">
<path d="M11.2 8.24572H1.2C0.599997 8.24572 0 7.7457 0 7.0457V1.34569C0 1.14569 0.0999954 1.04573 0.299995 0.945728C0.499995 0.845728 0.699995 0.845728 0.799995 0.945728L6.2 4.24572L11.6 0.745715C11.7 0.645715 11.9 0.645715 12.1 0.745715C12.3 0.845715 12.4 0.945703 12.4 1.0457C12.4 1.1457 12.4 1.24569 12.4 1.34569V7.0457C12.4 7.7457 11.8 8.24572 11.2 8.24572ZM1 2.24572V7.0457C1 7.1457 1.1 7.24572 1.2 7.24572H11.2C11.3 7.24572 11.4 7.1457 11.4 7.0457V2.0457L6.5 5.24572C6.3 5.34572 6.1 5.34572 6 5.24572L1 2.24572Z" fill="black"/>
<path d="M6.2 5.3457C6.1 5.3457 5.99999 5.34573 5.89999 5.24573L0.199997 1.74573C0.0999969 1.64573 0 1.4457 0 1.3457C0 0.745703 0.499997 0.145752 1.2 0.145752H11.2C11.7 0.145752 12.2 0.545715 12.3 1.04572C12.3 1.24572 12.3 1.44572 12.1 1.54572L6.39999 5.24573C6.39999 5.34573 6.3 5.3457 6.2 5.3457ZM1.2 1.14575L6.2 4.24573L10.9 1.14575H1.2Z" fill="black"/>
</svg>
