<svg width="8" height="11" viewBox="0 0 8 11" fill="none" xmlns="http://www.w3.org/2000/svg">
<path d="M3.59998 9.44577C3.87612 9.44577 4.09998 9.22191 4.09998 8.94577C4.09998 8.66963 3.87612 8.44577 3.59998 8.44577C3.32383 8.44577 3.09998 8.66963 3.09998 8.94577C3.09998 9.22191 3.32383 9.44577 3.59998 9.44577Z" fill="black"/>
<path d="M6.1 0.145752H1C0.4 0.145752 0 0.645752 0 1.14575V9.94577C0 10.5458 0.5 10.9458 1 10.9458H6.1C6.7 10.9458 7.1 10.4458 7.1 9.94577V1.14575C7.1 0.545752 6.7 0.145752 6.1 0.145752ZM6.1 1.14575V6.74576H1V1.14575H6.1ZM6.1 9.94577H1V7.84573H6.1V9.94577Z" fill="black"/>
</svg>
