<svg width="52" height="16" viewBox="0 0 52 16" fill="none" xmlns="http://www.w3.org/2000/svg">
<path d="M47.1 2.69995C45.9 1.49995 44.2 0.799927 42.5 0.799927C40.8 0.799927 39.1 1.49995 37.9 2.69995L37.7 2.89996C36.8 3.79996 35.7 4.19995 34.5 4.19995C33.3 4.19995 32.1 3.69996 31.3 2.89996L31.1 2.69995C29.9 1.49995 28.2 0.799927 26.5 0.799927C24.8 0.799927 23.1 1.49995 21.9 2.69995L21.8 2.79993C20.9 3.69993 19.8 4.09991 18.6 4.09991C17.4 4.09991 16.2 3.59993 15.4 2.79993L15.3 2.69995C12.8 0.199951 8.6 0.199951 6.1 2.69995L5.9 2.89996C5 3.79996 3.9 4.19995 2.7 4.19995C1.5 4.19995 0.299999 3.69996 -0.5 2.89996L-0.700001 2.69995C-3.3 0.199951 -7.4 0.199951 -9.9 2.69995L-10.1 2.89996C-11 3.79996 -12.1 4.19995 -13.3 4.19995C-14.5 4.19995 -15.7 3.69996 -16.5 2.89996L-16.7 2.69995C-16.8 2.59995 -16.9 2.49996 -17 2.39996V4.99994C-15.9 5.69994 -14.7 6.09991 -13.3 6.09991C-11.6 6.09991 -9.9 5.39995 -8.7 4.19995L-8.5 3.99994C-6.7 2.19994 -3.9 2.19994 -2.1 3.99994L-1.9 4.19995C-0.699999 5.39995 1 6.09991 2.7 6.09991C4.4 6.09991 6.1 5.39995 7.3 4.19995L7.5 3.99994C9.3 2.19994 12.1 2.19994 13.9 3.99994L14 4.09991C15.2 5.29991 16.9 5.99994 18.6 5.99994C20.3 5.99994 22 5.29991 23.2 4.09991L23.3 3.99994C24.2 3.09994 25.3 2.69995 26.5 2.69995C27.7 2.69995 28.9 3.19994 29.7 3.99994L29.9 4.19995C31.1 5.39995 32.8 6.09991 34.5 6.09991C36.2 6.09991 37.9 5.39995 39.1 4.19995L39.3 3.99994C40.2 3.09994 41.3 2.69995 42.5 2.69995C43.7 2.69995 44.9 3.19994 45.7 3.99994L49.7 7.99994L51.1 6.59991L47.1 2.69995Z" fill="#B36A5E"/>
<path d="M47.1 10.0999C45.9 8.89991 44.2 8.19995 42.5 8.19995C40.8 8.19995 39.1 8.89991 37.9 10.0999L37.7 10.2999C36.8 11.1999 35.7 11.5999 34.5 11.5999C33.3 11.5999 32.1 11.0999 31.3 10.2999L31.1 10.0999C29.9 8.89991 28.2 8.19995 26.5 8.19995C24.8 8.19995 23.1 8.89991 21.9 10.0999L21.8 10.2C20.9 11.1 19.8 11.4999 18.6 11.4999C17.4 11.4999 16.2 11 15.4 10.2L15.3 10.0999C12.8 7.59991 8.6 7.59991 6.1 10.0999L5.9 10.2999C5 11.1999 3.9 11.5999 2.7 11.5999C1.5 11.5999 0.299999 11.0999 -0.5 10.2999L-0.700001 10.0999C-3.3 7.59991 -7.4 7.59991 -9.9 10.0999L-10.1 10.2999C-11 11.1999 -12.1 11.5999 -13.3 11.5999C-14.5 11.5999 -15.7 11.0999 -16.5 10.2999L-16.7 10.0999C-16.8 9.99991 -16.9 9.89993 -17 9.79993V12.4C-15.9 13.1 -14.7 13.4999 -13.3 13.4999C-11.6 13.4999 -9.9 12.7999 -8.7 11.5999L-8.5 11.4999C-6.7 9.69994 -3.9 9.69994 -2.1 11.4999L-1.9 11.7C-0.699999 12.9 1 13.5999 2.7 13.5999C4.4 13.5999 6.1 12.9 7.3 11.7L7.5 11.4999C9.3 9.69994 12.1 9.69994 13.9 11.4999L14 11.5999C15.2 12.7999 16.9 13.4999 18.6 13.4999C20.3 13.4999 22 12.7999 23.2 11.5999L23.3 11.4999C24.2 10.5999 25.3 10.2 26.5 10.2C27.7 10.2 28.9 10.6999 29.7 11.4999L29.9 11.7C31.1 12.9 32.8 13.5999 34.5 13.5999C36.2 13.5999 37.9 12.9 39.1 11.7L39.3 11.4999C40.2 10.5999 41.3 10.2 42.5 10.2C43.7 10.2 44.9 10.6999 45.7 11.4999L49.7 15.4999L51.1 14.0999L47.1 10.0999Z" fill="#B36A5E"/>
</svg>
