<svg width="97" height="27" viewBox="0 0 97 27" fill="none" xmlns="http://www.w3.org/2000/svg">
<path d="M0.699951 9.49994L8.79993 1.39996L16.5999 9.19995L24.7 1.19995L32.7 9.19995L40.7 1.19995L48.7 9.19995L56.7 1.19995L64.5999 9.09991L72.4999 1.19995L80.4999 9.19995L88.4999 1.19995L96.4 9.09991" stroke="#B36A5E" stroke-miterlimit="10"/>
<path d="M0.699951 17.7L8.79993 9.59991L16.5999 17.4L24.7 9.29993L32.7 17.2999L40.7 9.29993L48.7 17.2999L56.7 9.29993L64.5999 17.2L72.4999 9.29993L80.4999 17.2999L88.4999 9.29993L96.4 17.2" stroke="#B36A5E" stroke-miterlimit="10"/>
<path d="M0.699951 25.7999L8.79993 17.7999L16.5999 25.5999L24.7 17.4999L32.7 25.4999L40.7 17.4999L48.7 25.4999L56.7 17.4999L64.5999 25.4L72.4999 17.4999L80.4999 25.4999L88.4999 17.4999L96.4 25.4" stroke="#B36A5E" stroke-miterlimit="10"/>
</svg>
