<svg width="52" height="16" viewBox="0 0 52 16" fill="none" xmlns="http://www.w3.org/2000/svg">
<path d="M47.1 2.69995C45.9 1.49995 44.2 0.799927 42.5 0.799927C40.8 0.799927 39.1 1.49995 37.9 2.69995L37.7 2.89996C36.8 3.79996 35.7 4.19995 34.5 4.19995C33.3 4.19995 32.1 3.69996 31.3 2.89996L31.1 2.69995C29.9 1.49995 28.2 0.799927 26.5 0.799927C24.8 0.799927 23.1 1.49995 21.9 2.69995L21.8 2.79993C20.9 3.69993 19.8 4.09991 18.6 4.09991C17.4 4.09991 16.2 3.59993 15.4 2.79993L15.3 2.69995C12.8 0.199951 8.6 0.199951 6.1 2.69995L5.9 2.89996C5 3.79996 3.9 4.19995 2.7 4.19995C1.5 4.19995 0.299999 3.69996 -0.5 2.89996L-0.700001 2.69995C-3.3 0.199951 -7.4 0.199951 -9.9 2.69995L-10.1 2.89996C-11 3.79996 -12.1 4.19995 -13.3 4.19995C-14.5 4.19995 -15.7 3.69996 -16.5 2.89996L-16.7 2.69995C-16.8 2.59995 -16.9 2.49996 -17 2.39996V4.99994C-15.9 5.69994 -14.7 6.09991 -13.3 6.09991C-11.6 6.09991 -9.9 5.39995 -8.7 4.19995L-8.5 3.99994C-6.7 2.19994 -3.9 2.19994 -2.1 3.99994L-1.9 4.19995C-0.699999 5.39995 1 6.09991 2.7 6.09991C4.4 6.09991 6.1 5.39995 7.3 4.19995L7.5 3.99994C9.3 2.19994 12.1 2.19994 13.9 3.99994L14 4.09991C15.2 5.29991 16.9 5.99994 18.6 5.99994C20.3 5.99994 22 5.29991 23.2 4.09991L23.3 3.99994C24.2 3.09994 25.3 2.69995 26.5 2.69995C27.7 2.69995 28.9 3.19994 29.7 3.99994L29.9 4.19995C31.1 5.39995 32.8 6.09991 34.5 6.09991C36.2 6.09991 37.9 5.39995 39.1 4.19995L39.3 3.99994C40.2 3.09994 41.3 2.69995 42.5 2.69995C43.7 2.69995 44.9 3.19994 45.7 3.99994L49.7 7.99994L51.1 6.59991L47.1 2.69995Z" fill="#B36A5E"/>
</svg>
