<svg xmlns="http://www.w3.org/2000/svg" xmlns:xlink="http://www.w3.org/1999/xlink" viewBox="0 0 664 261.6" width="664" height="261.6"><path d="M 255.350,150.537 C 258.315,150.408 258.150,150.937 260.950,151.337" stroke-width="5.204" stroke="black" fill="none" stroke-linecap="round"></path><path d="M 260.950,151.337 C 264.723,154.786 265.116,152.808 268.950,155.337" stroke-width="4.634" stroke="black" fill="none" stroke-linecap="round"></path><path d="M 268.950,155.337 C 274.578,155.605 273.923,155.986 279.350,153.738" stroke-width="4.392" stroke="black" fill="none" stroke-linecap="round"></path><path d="M 279.350,153.738 C 283.725,151.359 283.778,152.005 287.350,148.137" stroke-width="3.722" stroke="black" fill="none" stroke-linecap="round"></path><path d="M 287.350,148.137 C 290.964,144.838 290.925,144.959 293.750,140.938" stroke-width="3.629" stroke="black" fill="none" stroke-linecap="round"></path><path d="M 293.750,140.938 C 296.593,136.162 296.964,136.438 299.350,131.337" stroke-width="3.467" stroke="black" fill="none" stroke-linecap="round"></path><path d="M 299.350,131.337 C 303.196,123.061 301.393,127.762 303.350,124.137" stroke-width="3.636" stroke="black" fill="none" stroke-linecap="round"></path><path d="M 303.350,124.137 C 301.348,130.469 303.596,125.861 300.150,136.938" stroke-width="4.419" stroke="black" fill="none" stroke-linecap="round"></path><path d="M 300.150,136.938 C 298.522,141.597 299.348,141.269 299.350,145.738" stroke-width="3.891" stroke="black" fill="none" stroke-linecap="round"></path><path d="M 299.350,145.738 C 300.371,150.554 300.122,149.597 303.350,152.938" stroke-width="3.819" stroke="black" fill="none" stroke-linecap="round"></path><path d="M 303.350,152.938 C 307.274,154.930 306.371,155.354 311.350,155.337" stroke-width="3.732" stroke="black" fill="none" stroke-linecap="round"></path><path d="M 311.350,155.337 C 315.997,156.302 315.274,155.730 319.350,154.537" stroke-width="3.840" stroke="black" fill="none" stroke-linecap="round"></path><path d="M 319.350,154.537 C 323.263,151.205 323.597,152.302 326.550,147.337" stroke-width="3.609" stroke="black" fill="none" stroke-linecap="round"></path><path d="M 326.550,147.337 C 329.880,143.025 330.063,143.205 332.950,138.537" stroke-width="3.482" stroke="black" fill="none" stroke-linecap="round"></path><path d="M 332.950,138.537 C 337.169,134.982 335.080,135.425 336.950,132.137" stroke-width="3.805" stroke="black" fill="none" stroke-linecap="round"></path><path d="M 336.950,132.137 C 333.806,127.723 336.769,129.782 332.150,128.137" stroke-width="4.576" stroke="black" fill="none" stroke-linecap="round"></path><path d="M 332.150,128.137 C 330.709,130.877 330.606,128.523 330.550,133.737" stroke-width="4.299" stroke="black" fill="none" stroke-linecap="round"></path><path d="M 330.550,133.737 C 329.935,138.496 330.309,138.077 331.350,142.537" stroke-width="3.803" stroke="black" fill="none" stroke-linecap="round"></path><path d="M 331.350,142.537 C 333.003,146.984 332.735,146.496 336.150,149.738" stroke-width="3.750" stroke="black" fill="none" stroke-linecap="round"></path><path d="M 336.150,149.738 C 339.939,152.630 339.403,152.584 344.150,153.738" stroke-width="3.649" stroke="black" fill="none" stroke-linecap="round"></path><path d="M 344.150,153.738 C 347.826,154.207 347.539,154.630 351.350,153.738" stroke-width="3.807" stroke="black" fill="none" stroke-linecap="round"></path><path d="M 351.350,153.738 C 354.517,153.771 353.826,153.407 356.150,152.137" stroke-width="4.162" stroke="black" fill="none" stroke-linecap="round"></path><path d="M 356.150,152.137 C 358.550,149.406 358.117,150.171 358.550,146.537" stroke-width="4.100" stroke="black" fill="none" stroke-linecap="round"></path><path d="M 358.550,146.537 C 358.407,139.892 358.550,142.606 356.150,138.537" stroke-width="4.365" stroke="black" fill="none" stroke-linecap="round"></path><path d="M 356.150,138.537 C 351.974,139.245 354.407,137.492 350.550,141.737" stroke-width="4.598" stroke="black" fill="none" stroke-linecap="round"></path><path d="M 350.550,141.737 C 348.993,145.951 348.774,144.845 349.750,149.738" stroke-width="4.023" stroke="black" fill="none" stroke-linecap="round"></path><path d="M 349.750,149.738 C 351.101,154.205 350.593,153.951 353.750,157.738" stroke-width="3.834" stroke="black" fill="none" stroke-linecap="round"></path><path d="M 353.750,157.738 C 357.034,163.267 357.101,162.205 361.750,165.738" stroke-width="3.502" stroke="black" fill="none" stroke-linecap="round"></path><path d="M 361.750,165.738 C 366.157,166.537 365.434,167.667 370.550,166.537" stroke-width="3.687" stroke="black" fill="none" stroke-linecap="round"></path><path d="M 370.550,166.537 C 374.222,167.102 373.757,166.537 376.950,165.738" stroke-width="3.994" stroke="black" fill="none" stroke-linecap="round"></path><path d="M 376.950,165.738 C 380.028,163.736 379.822,164.302 381.750,160.938" stroke-width="4.057" stroke="black" fill="none" stroke-linecap="round"></path><path d="M 381.750,160.938 C 382.942,158.192 383.228,158.536 383.350,155.337" stroke-width="4.149" stroke="black" fill="none" stroke-linecap="round"></path><path d="M 383.350,155.337 C 381.188,150.188 383.742,152.592 383.350,149.738" stroke-width="4.627" stroke="black" fill="none" stroke-linecap="round"></path><path d="M 383.350,149.738 C 392.955,150.481 390.788,148.188 402.550,151.337" stroke-width="3.962" stroke="black" fill="none" stroke-linecap="round"></path><path d="M 402.550,151.337 C 415.425,152.025 415.355,152.481 428.150,153.738" stroke-width="2.499" stroke="black" fill="none" stroke-linecap="round"></path><path d="M 428.150,153.738 C 436.844,154.198 436.225,154.825 444.150,156.938" stroke-width="2.748" stroke="black" fill="none" stroke-linecap="round"></path><path d="M 444.150,156.938 C 448.073,159.011 446.444,157.798 447.350,160.938" stroke-width="3.688" stroke="black" fill="none" stroke-linecap="round"></path><path d="M 447.350,160.938 C 444.550,167.138 445.672,165.411 439.350,169.738" stroke-width="3.353" stroke="black" fill="none" stroke-linecap="round"></path><path d="M 439.350,169.738 C 423.126,178.232 423.750,177.538 405.750,181.738" stroke-width="2.105" stroke="black" fill="none" stroke-linecap="round"></path><path d="M 405.750,181.738 C 377.048,186.552 377.526,187.432 348.150,188.137" stroke-width="1.447" stroke="black" fill="none" stroke-linecap="round"></path><path d="M 348.150,188.137 C 311.181,191.343 311.448,190.152 274.550,188.938" stroke-width="1.149" stroke="black" fill="none" stroke-linecap="round"></path><path d="M 274.550,188.938 C 231.700,185.506 231.981,186.143 189.750,177.738" stroke-width="1.125" stroke="black" fill="none" stroke-linecap="round"></path><path d="M 189.750,177.738 C 166.591,172.807 166.900,173.506 144.950,164.938" stroke-width="1.281" stroke="black" fill="none" stroke-linecap="round"></path><path d="M 144.950,164.938 C 134.343,160.643 140.191,163.207 136.950,158.537" stroke-width="2.306" stroke="black" fill="none" stroke-linecap="round"></path><path d="M 136.950,158.537 C 150.785,151.070 144.743,152.243 165.750,148.137" stroke-width="2.030" stroke="black" fill="none" stroke-linecap="round"></path><path d="M 165.750,148.137 C 210.456,141.008 209.985,139.470 255.350,135.337" stroke-width="1.125" stroke="black" fill="none" stroke-linecap="round"></path><path d="M 255.350,135.337 C 324.763,128.867 324.456,126.608 393.750,119.337" stroke-width="1.125" stroke="black" fill="none" stroke-linecap="round"></path><path d="M 393.750,119.337 C 457.709,108.666 457.963,110.467 521.750,98.537" stroke-width="1.125" stroke="black" fill="none" stroke-linecap="round"></path></svg>