<svg width="490" height="230" viewBox="0 0 490 230" fill="none" xmlns="http://www.w3.org/2000/svg">
<path d="M13.9 9.03404C14.8389 9.03404 15.6 8.37722 15.6 7.56701C15.6 6.75679 14.8389 6.09998 13.9 6.09998C12.9611 6.09998 12.2 6.75679 12.2 7.56701C12.2 8.37722 12.9611 9.03404 13.9 9.03404Z" fill="black"/>
<path d="M34.7 9.03404C35.6389 9.03404 36.4 8.37722 36.4 7.56701C36.4 6.75679 35.6389 6.09998 34.7 6.09998C33.7611 6.09998 33 6.75679 33 7.56701C33 8.37722 33.7611 9.03404 34.7 9.03404Z" fill="black"/>
<path d="M55.5 9.03404C56.4389 9.03404 57.2 8.37722 57.2 7.56701C57.2 6.75679 56.4389 6.09998 55.5 6.09998C54.5611 6.09998 53.8 6.75679 53.8 7.56701C53.8 8.37722 54.5611 9.03404 55.5 9.03404Z" fill="black"/>
<path d="M76.4 9.03404C77.3389 9.03404 78.1 8.37722 78.1 7.56701C78.1 6.75679 77.3389 6.09998 76.4 6.09998C75.4611 6.09998 74.7 6.75679 74.7 7.56701C74.7 8.37722 75.4611 9.03404 76.4 9.03404Z" fill="black"/>
<path d="M97.2 9.03404C98.1389 9.03404 98.9 8.37722 98.9 7.56701C98.9 6.75679 98.1389 6.09998 97.2 6.09998C96.2611 6.09998 95.5 6.75679 95.5 7.56701C95.5 8.37722 96.2611 9.03404 97.2 9.03404Z" fill="black"/>
<path d="M118 9.03404C118.939 9.03404 119.7 8.37722 119.7 7.56701C119.7 6.75679 118.939 6.09998 118 6.09998C117.061 6.09998 116.3 6.75679 116.3 7.56701C116.3 8.37722 117.061 9.03404 118 9.03404Z" fill="black"/>
<path d="M138.8 9.03404C139.739 9.03404 140.5 8.37722 140.5 7.56701C140.5 6.75679 139.739 6.09998 138.8 6.09998C137.861 6.09998 137.1 6.75679 137.1 7.56701C137.1 8.37722 137.861 9.03404 138.8 9.03404Z" fill="black"/>
<path d="M159.6 9.03404C160.539 9.03404 161.3 8.37722 161.3 7.56701C161.3 6.75679 160.539 6.09998 159.6 6.09998C158.661 6.09998 157.9 6.75679 157.9 7.56701C157.9 8.37722 158.661 9.03404 159.6 9.03404Z" fill="black"/>
<path d="M180.4 9.03404C181.339 9.03404 182.1 8.37722 182.1 7.56701C182.1 6.75679 181.339 6.09998 180.4 6.09998C179.461 6.09998 178.7 6.75679 178.7 7.56701C178.7 8.37722 179.461 9.03404 180.4 9.03404Z" fill="black"/>
<path d="M201.2 9.03404C202.139 9.03404 202.9 8.37722 202.9 7.56701C202.9 6.75679 202.139 6.09998 201.2 6.09998C200.261 6.09998 199.5 6.75679 199.5 7.56701C199.5 8.37722 200.261 9.03404 201.2 9.03404Z" fill="black"/>
<path d="M222 9.03404C222.939 9.03404 223.7 8.37722 223.7 7.56701C223.7 6.75679 222.939 6.09998 222 6.09998C221.061 6.09998 220.3 6.75679 220.3 7.56701C220.3 8.37722 221.061 9.03404 222 9.03404Z" fill="black"/>
<path d="M242.8 9.03404C243.739 9.03404 244.5 8.37722 244.5 7.56701C244.5 6.75679 243.739 6.09998 242.8 6.09998C241.861 6.09998 241.1 6.75679 241.1 7.56701C241.1 8.37722 241.861 9.03404 242.8 9.03404Z" fill="black"/>
<path d="M263.7 9.03404C264.639 9.03404 265.4 8.37722 265.4 7.56701C265.4 6.75679 264.639 6.09998 263.7 6.09998C262.761 6.09998 262 6.75679 262 7.56701C262 8.37722 262.761 9.03404 263.7 9.03404Z" fill="black"/>
<path d="M284.5 9.03404C285.439 9.03404 286.2 8.37722 286.2 7.56701C286.2 6.75679 285.439 6.09998 284.5 6.09998C283.561 6.09998 282.8 6.75679 282.8 7.56701C282.8 8.37722 283.561 9.03404 284.5 9.03404Z" fill="black"/>
<path d="M305.3 9.03404C306.239 9.03404 307 8.37722 307 7.56701C307 6.75679 306.239 6.09998 305.3 6.09998C304.361 6.09998 303.6 6.75679 303.6 7.56701C303.6 8.37722 304.361 9.03404 305.3 9.03404Z" fill="black"/>
<path d="M326.1 9.03404C327.039 9.03404 327.8 8.37722 327.8 7.56701C327.8 6.75679 327.039 6.09998 326.1 6.09998C325.161 6.09998 324.4 6.75679 324.4 7.56701C324.4 8.37722 325.161 9.03404 326.1 9.03404Z" fill="black"/>
<path d="M346.9 9.03404C347.839 9.03404 348.6 8.37722 348.6 7.56701C348.6 6.75679 347.839 6.09998 346.9 6.09998C345.961 6.09998 345.2 6.75679 345.2 7.56701C345.2 8.37722 345.961 9.03404 346.9 9.03404Z" fill="black"/>
<path d="M367.7 9.03404C368.639 9.03404 369.4 8.37722 369.4 7.56701C369.4 6.75679 368.639 6.09998 367.7 6.09998C366.761 6.09998 366 6.75679 366 7.56701C366 8.37722 366.761 9.03404 367.7 9.03404Z" fill="black"/>
<path d="M388.5 9.03404C389.439 9.03404 390.2 8.37722 390.2 7.56701C390.2 6.75679 389.439 6.09998 388.5 6.09998C387.561 6.09998 386.8 6.75679 386.8 7.56701C386.8 8.37722 387.561 9.03404 388.5 9.03404Z" fill="black"/>
<path d="M409.3 9.03404C410.239 9.03404 411 8.37722 411 7.56701C411 6.75679 410.239 6.09998 409.3 6.09998C408.361 6.09998 407.6 6.75679 407.6 7.56701C407.6 8.37722 408.361 9.03404 409.3 9.03404Z" fill="black"/>
<path d="M430.1 9.03404C431.039 9.03404 431.8 8.37722 431.8 7.56701C431.8 6.75679 431.039 6.09998 430.1 6.09998C429.161 6.09998 428.4 6.75679 428.4 7.56701C428.4 8.37722 429.161 9.03404 430.1 9.03404Z" fill="black"/>
<path d="M430.1 29.8312C431.039 29.8312 431.8 29.1744 431.8 28.3642C431.8 27.554 431.039 26.8972 430.1 26.8972C429.161 26.8972 428.4 27.554 428.4 28.3642C428.4 29.1744 429.161 29.8312 430.1 29.8312Z" fill="black"/>
<path d="M430.1 47.5217C431.039 47.5217 431.8 46.8649 431.8 46.0547C431.8 45.2445 431.039 44.5877 430.1 44.5877C429.161 44.5877 428.4 45.2445 428.4 46.0547C428.4 46.8649 429.161 47.5217 430.1 47.5217Z" fill="black"/>
<path d="M430.1 65.2123C431.039 65.2123 431.8 64.5555 431.8 63.7453C431.8 62.9351 431.039 62.2783 430.1 62.2783C429.161 62.2783 428.4 62.9351 428.4 63.7453C428.4 64.5555 429.161 65.2123 430.1 65.2123Z" fill="black"/>
<path d="M430.1 82.9029C431.039 82.9029 431.8 82.246 431.8 81.4358C431.8 80.6256 431.039 79.9688 430.1 79.9688C429.161 79.9688 428.4 80.6256 428.4 81.4358C428.4 82.246 429.161 82.9029 430.1 82.9029Z" fill="black"/>
<path d="M430.1 100.593C431.039 100.593 431.8 99.9366 431.8 99.1264C431.8 98.3162 431.039 97.6594 430.1 97.6594C429.161 97.6594 428.4 98.3162 428.4 99.1264C428.4 99.9366 429.161 100.593 430.1 100.593Z" fill="black"/>
<path d="M13.9 29.8312C14.8389 29.8312 15.6 29.1744 15.6 28.3642C15.6 27.554 14.8389 26.8972 13.9 26.8972C12.9611 26.8972 12.2 27.554 12.2 28.3642C12.2 29.1744 12.9611 29.8312 13.9 29.8312Z" fill="black"/>
<path d="M13.9 47.5217C14.8389 47.5217 15.6 46.8649 15.6 46.0547C15.6 45.2445 14.8389 44.5877 13.9 44.5877C12.9611 44.5877 12.2 45.2445 12.2 46.0547C12.2 46.8649 12.9611 47.5217 13.9 47.5217Z" fill="black"/>
<path d="M13.9 65.2123C14.8389 65.2123 15.6 64.5555 15.6 63.7453C15.6 62.9351 14.8389 62.2783 13.9 62.2783C12.9611 62.2783 12.2 62.9351 12.2 63.7453C12.2 64.5555 12.9611 65.2123 13.9 65.2123Z" fill="black"/>
<path d="M13.9 82.9029C14.8389 82.9029 15.6 82.246 15.6 81.4358C15.6 80.6256 14.8389 79.9688 13.9 79.9688C12.9611 79.9688 12.2 80.6256 12.2 81.4358C12.2 82.246 12.9611 82.9029 13.9 82.9029Z" fill="black"/>
<path d="M13.9 100.593C14.8389 100.593 15.6 99.9366 15.6 99.1264C15.6 98.3162 14.8389 97.6594 13.9 97.6594C12.9611 97.6594 12.2 98.3162 12.2 99.1264C12.2 99.9366 12.9611 100.593 13.9 100.593Z" fill="black"/>
<path d="M13.9 100.421C14.8389 100.421 15.6 99.764 15.6 98.9538C15.6 98.1436 14.8389 97.4868 13.9 97.4868C12.9611 97.4868 12.2 98.1436 12.2 98.9538C12.2 99.764 12.9611 100.421 13.9 100.421Z" fill="black"/>
<path d="M13.9 118.111C14.8389 118.111 15.6 117.455 15.6 116.644C15.6 115.834 14.8389 115.177 13.9 115.177C12.9611 115.177 12.2 115.834 12.2 116.644C12.2 117.455 12.9611 118.111 13.9 118.111Z" fill="black"/>
<path d="M13.9 135.802C14.8389 135.802 15.6 135.145 15.6 134.335C15.6 133.525 14.8389 132.868 13.9 132.868C12.9611 132.868 12.2 133.525 12.2 134.335C12.2 135.145 12.9611 135.802 13.9 135.802Z" fill="black"/>
<path d="M13.9 153.492C14.8389 153.492 15.6 152.836 15.6 152.025C15.6 151.215 14.8389 150.558 13.9 150.558C12.9611 150.558 12.2 151.215 12.2 152.025C12.2 152.836 12.9611 153.492 13.9 153.492Z" fill="black"/>
<path d="M13.9 171.183C14.8389 171.183 15.6 170.526 15.6 169.716C15.6 168.906 14.8389 168.249 13.9 168.249C12.9611 168.249 12.2 168.906 12.2 169.716C12.2 170.526 12.9611 171.183 13.9 171.183Z" fill="black"/>
<path d="M429.7 100.421C430.639 100.421 431.4 99.764 431.4 98.9538C431.4 98.1436 430.639 97.4868 429.7 97.4868C428.761 97.4868 428 98.1436 428 98.9538C428 99.764 428.761 100.421 429.7 100.421Z" fill="black"/>
<path d="M429.7 118.111C430.639 118.111 431.4 117.455 431.4 116.644C431.4 115.834 430.639 115.177 429.7 115.177C428.761 115.177 428 115.834 428 116.644C428 117.455 428.761 118.111 429.7 118.111Z" fill="black"/>
<path d="M429.7 135.802C430.639 135.802 431.4 135.145 431.4 134.335C431.4 133.525 430.639 132.868 429.7 132.868C428.761 132.868 428 133.525 428 134.335C428 135.145 428.761 135.802 429.7 135.802Z" fill="black"/>
<path d="M429.7 153.492C430.639 153.492 431.4 152.836 431.4 152.025C431.4 151.215 430.639 150.558 429.7 150.558C428.761 150.558 428 151.215 428 152.025C428 152.836 428.761 153.492 429.7 153.492Z" fill="black"/>
<path d="M429.7 171.183C430.639 171.183 431.4 170.526 431.4 169.716C431.4 168.906 430.639 168.249 429.7 168.249C428.761 168.249 428 168.906 428 169.716C428 170.526 428.761 171.183 429.7 171.183Z" fill="black"/>
<path d="M13.9 184.99C14.8389 184.99 15.6 184.334 15.6 183.523C15.6 182.713 14.8389 182.056 13.9 182.056C12.9611 182.056 12.2 182.713 12.2 183.523C12.2 184.334 12.9611 184.99 13.9 184.99Z" fill="black"/>
<path d="M34.7 184.99C35.6389 184.99 36.4 184.334 36.4 183.523C36.4 182.713 35.6389 182.056 34.7 182.056C33.7611 182.056 33 182.713 33 183.523C33 184.334 33.7611 184.99 34.7 184.99Z" fill="black"/>
<path d="M55.5 184.99C56.4389 184.99 57.2 184.334 57.2 183.523C57.2 182.713 56.4389 182.056 55.5 182.056C54.5611 182.056 53.8 182.713 53.8 183.523C53.8 184.334 54.5611 184.99 55.5 184.99Z" fill="black"/>
<path d="M76.4 184.99C77.3389 184.99 78.1 184.334 78.1 183.523C78.1 182.713 77.3389 182.056 76.4 182.056C75.4611 182.056 74.7 182.713 74.7 183.523C74.7 184.334 75.4611 184.99 76.4 184.99Z" fill="black"/>
<path d="M97.2 184.99C98.1389 184.99 98.9 184.334 98.9 183.523C98.9 182.713 98.1389 182.056 97.2 182.056C96.2611 182.056 95.5 182.713 95.5 183.523C95.5 184.334 96.2611 184.99 97.2 184.99Z" fill="black"/>
<path d="M118 184.99C118.939 184.99 119.7 184.334 119.7 183.523C119.7 182.713 118.939 182.056 118 182.056C117.061 182.056 116.3 182.713 116.3 183.523C116.3 184.334 117.061 184.99 118 184.99Z" fill="black"/>
<path d="M138.8 184.99C139.739 184.99 140.5 184.334 140.5 183.523C140.5 182.713 139.739 182.056 138.8 182.056C137.861 182.056 137.1 182.713 137.1 183.523C137.1 184.334 137.861 184.99 138.8 184.99Z" fill="black"/>
<path d="M159.6 184.99C160.539 184.99 161.3 184.334 161.3 183.523C161.3 182.713 160.539 182.056 159.6 182.056C158.661 182.056 157.9 182.713 157.9 183.523C157.9 184.334 158.661 184.99 159.6 184.99Z" fill="black"/>
<path d="M180.4 184.99C181.339 184.99 182.1 184.334 182.1 183.523C182.1 182.713 181.339 182.056 180.4 182.056C179.461 182.056 178.7 182.713 178.7 183.523C178.7 184.334 179.461 184.99 180.4 184.99Z" fill="black"/>
<path d="M201.2 184.99C202.139 184.99 202.9 184.334 202.9 183.523C202.9 182.713 202.139 182.056 201.2 182.056C200.261 182.056 199.5 182.713 199.5 183.523C199.5 184.334 200.261 184.99 201.2 184.99Z" fill="black"/>
<path d="M222 184.99C222.939 184.99 223.7 184.334 223.7 183.523C223.7 182.713 222.939 182.056 222 182.056C221.061 182.056 220.3 182.713 220.3 183.523C220.3 184.334 221.061 184.99 222 184.99Z" fill="black"/>
<path d="M242.8 184.99C243.739 184.99 244.5 184.334 244.5 183.523C244.5 182.713 243.739 182.056 242.8 182.056C241.861 182.056 241.1 182.713 241.1 183.523C241.1 184.334 241.861 184.99 242.8 184.99Z" fill="black"/>
<path d="M263.7 184.99C264.639 184.99 265.4 184.334 265.4 183.523C265.4 182.713 264.639 182.056 263.7 182.056C262.761 182.056 262 182.713 262 183.523C262 184.334 262.761 184.99 263.7 184.99Z" fill="black"/>
<path d="M284.5 184.99C285.439 184.99 286.2 184.334 286.2 183.523C286.2 182.713 285.439 182.056 284.5 182.056C283.561 182.056 282.8 182.713 282.8 183.523C282.8 184.334 283.561 184.99 284.5 184.99Z" fill="black"/>
<path d="M305.3 184.99C306.239 184.99 307 184.334 307 183.523C307 182.713 306.239 182.056 305.3 182.056C304.361 182.056 303.6 182.713 303.6 183.523C303.6 184.334 304.361 184.99 305.3 184.99Z" fill="black"/>
<path d="M326.1 184.99C327.039 184.99 327.8 184.334 327.8 183.523C327.8 182.713 327.039 182.056 326.1 182.056C325.161 182.056 324.4 182.713 324.4 183.523C324.4 184.334 325.161 184.99 326.1 184.99Z" fill="black"/>
<path d="M346.9 184.99C347.839 184.99 348.6 184.334 348.6 183.523C348.6 182.713 347.839 182.056 346.9 182.056C345.961 182.056 345.2 182.713 345.2 183.523C345.2 184.334 345.961 184.99 346.9 184.99Z" fill="black"/>
<path d="M367.7 184.99C368.639 184.99 369.4 184.334 369.4 183.523C369.4 182.713 368.639 182.056 367.7 182.056C366.761 182.056 366 182.713 366 183.523C366 184.334 366.761 184.99 367.7 184.99Z" fill="black"/>
<path d="M388.5 184.99C389.439 184.99 390.2 184.334 390.2 183.523C390.2 182.713 389.439 182.056 388.5 182.056C387.561 182.056 386.8 182.713 386.8 183.523C386.8 184.334 387.561 184.99 388.5 184.99Z" fill="black"/>
<path d="M409.3 184.99C410.239 184.99 411 184.334 411 183.523C411 182.713 410.239 182.056 409.3 182.056C408.361 182.056 407.6 182.713 407.6 183.523C407.6 184.334 408.361 184.99 409.3 184.99Z" fill="black"/>
<path d="M430.1 184.99C431.039 184.99 431.8 184.334 431.8 183.523C431.8 182.713 431.039 182.056 430.1 182.056C429.161 182.056 428.4 182.713 428.4 183.523C428.4 184.334 429.161 184.99 430.1 184.99Z" fill="black"/>
<path d="M29.5181 229.466L2.70166 194.286H50.5309L76.9471 229.466H79.7488L53.3326 194.286H99.561L125.977 229.466H128.779L102.363 194.286H148.591L175.007 229.466H177.809L151.393 194.286H197.621L224.037 229.466H226.839L200.423 194.286H246.651L273.067 229.466H275.869L249.453 194.286H295.681L322.097 229.466H324.899L298.483 194.286H344.711L371.127 229.466H373.929L347.513 194.286H393.741L420.157 229.466H422.959L396.543 194.286H442.771L469.187 229.466H471.989L444.172 192.421V147.78L487.999 206.146V229.599H490V61.8305L444.272 0H0V194.286L26.7164 229.466H29.5181ZM444.172 3.86436L487.999 62.8966V105.405L444.172 47.0392V3.86436ZM444.172 50.9036L487.999 109.269V153.91L444.172 95.5442V50.9036ZM444.172 99.2753L487.999 157.641V202.282L444.172 143.916V99.2753ZM1.90117 2.79833H442.171V191.621H1.90117V2.79833Z" fill="black"/>
</svg>
