<svg width="198" height="339" viewBox="0 0 198 339" fill="none" xmlns="http://www.w3.org/2000/svg">
<path d="M148.655 11.1404C148.655 11.7702 149.18 12.2807 149.827 12.2807C150.475 12.2807 151 11.7702 151 11.1404C151 10.5106 150.475 10 149.827 10C149.18 10 148.655 10.5106 148.655 11.1404Z" fill="black"/>
<path d="M148.655 25.0931C148.655 25.7229 149.18 26.2334 149.827 26.2334C150.475 26.2334 151 25.7229 151 25.0931C151 24.4633 150.475 23.9527 149.827 23.9527C149.18 23.9527 148.655 24.4633 148.655 25.0931Z" fill="black"/>
<path d="M148.655 39.0457C148.655 39.6755 149.18 40.1861 149.827 40.1861C150.475 40.1861 151 39.6755 151 39.0457C151 38.4159 150.475 37.9053 149.827 37.9053C149.18 37.9053 148.655 38.4159 148.655 39.0457Z" fill="black"/>
<path d="M148.655 53.0655C148.655 53.6953 149.18 54.2058 149.827 54.2058C150.475 54.2058 151 53.6953 151 53.0655C151 52.4357 150.475 51.9251 149.827 51.9251C149.18 51.9251 148.655 52.4357 148.655 53.0655Z" fill="black"/>
<path d="M148.655 67.0182C148.655 67.648 149.18 68.1585 149.827 68.1585C150.475 68.1585 151 67.648 151 67.0182C151 66.3884 150.475 65.8778 149.827 65.8778C149.18 65.8778 148.655 66.3884 148.655 67.0182Z" fill="black"/>
<path d="M148.655 80.9709C148.655 81.6007 149.18 82.1112 149.827 82.1112C150.475 82.1112 151 81.6007 151 80.9709C151 80.3411 150.475 79.8305 149.827 79.8305C149.18 79.8305 148.655 80.3411 148.655 80.9709Z" fill="black"/>
<path d="M148.655 94.9235C148.655 95.5533 149.18 96.0639 149.827 96.0639C150.475 96.0639 151 95.5533 151 94.9235C151 94.2937 150.475 93.7831 149.827 93.7831C149.18 93.7831 148.655 94.2937 148.655 94.9235Z" fill="black"/>
<path d="M148.655 108.876C148.655 109.506 149.18 110.017 149.827 110.017C150.475 110.017 151 109.506 151 108.876C151 108.246 150.475 107.736 149.827 107.736C149.18 107.736 148.655 108.246 148.655 108.876Z" fill="black"/>
<path d="M148.655 122.829C148.655 123.459 149.18 123.969 149.827 123.969C150.475 123.969 151 123.459 151 122.829C151 122.199 150.475 121.689 149.827 121.689C149.18 121.689 148.655 122.199 148.655 122.829Z" fill="black"/>
<path d="M148.655 136.782C148.655 137.411 149.18 137.922 149.827 137.922C150.475 137.922 151 137.411 151 136.782C151 136.152 150.475 135.641 149.827 135.641C149.18 135.641 148.655 136.152 148.655 136.782Z" fill="black"/>
<path d="M148.655 150.734C148.655 151.364 149.18 151.875 149.827 151.875C150.475 151.875 151 151.364 151 150.734C151 150.104 150.475 149.594 149.827 149.594C149.18 149.594 148.655 150.104 148.655 150.734Z" fill="black"/>
<path d="M148.655 164.687C148.655 165.317 149.18 165.827 149.827 165.827C150.475 165.827 151 165.317 151 164.687C151 164.057 150.475 163.547 149.827 163.547C149.18 163.547 148.655 164.057 148.655 164.687Z" fill="black"/>
<path d="M148.655 178.707C148.655 179.337 149.18 179.847 149.827 179.847C150.475 179.847 151 179.337 151 178.707C151 178.077 150.475 177.566 149.827 177.566C149.18 177.566 148.655 178.077 148.655 178.707Z" fill="black"/>
<path d="M148.655 192.659C148.655 193.289 149.18 193.8 149.827 193.8C150.475 193.8 151 193.289 151 192.659C151 192.03 150.475 191.519 149.827 191.519C149.18 191.519 148.655 192.03 148.655 192.659Z" fill="black"/>
<path d="M148.655 206.612C148.655 207.242 149.18 207.752 149.827 207.752C150.475 207.752 151 207.242 151 206.612C151 205.982 150.475 205.472 149.827 205.472C149.18 205.472 148.655 205.982 148.655 206.612Z" fill="black"/>
<path d="M148.655 220.565C148.655 221.195 149.18 221.705 149.827 221.705C150.475 221.705 151 221.195 151 220.565C151 219.935 150.475 219.424 149.827 219.424C149.18 219.424 148.655 219.935 148.655 220.565Z" fill="black"/>
<path d="M148.655 234.517C148.655 235.147 149.18 235.658 149.827 235.658C150.475 235.658 151 235.147 151 234.517C151 233.888 150.475 233.377 149.827 233.377C149.18 233.377 148.655 233.888 148.655 234.517Z" fill="black"/>
<path d="M148.655 248.47C148.655 249.1 149.18 249.61 149.827 249.61C150.475 249.61 151 249.1 151 248.47C151 247.84 150.475 247.33 149.827 247.33C149.18 247.33 148.655 247.84 148.655 248.47Z" fill="black"/>
<path d="M148.655 262.423C148.655 263.052 149.18 263.563 149.827 263.563C150.475 263.563 151 263.052 151 262.423C151 261.793 150.475 261.282 149.827 261.282C149.18 261.282 148.655 261.793 148.655 262.423Z" fill="black"/>
<path d="M148.655 276.375C148.655 277.005 149.18 277.516 149.827 277.516C150.475 277.516 151 277.005 151 276.375C151 275.746 150.475 275.235 149.827 275.235C149.18 275.235 148.655 275.746 148.655 276.375Z" fill="black"/>
<path d="M148.655 290.328C148.655 290.958 149.18 291.469 149.827 291.469C150.475 291.469 151 290.958 151 290.328C151 289.698 150.475 289.188 149.827 289.188C149.18 289.188 148.655 289.698 148.655 290.328Z" fill="black"/>
<path d="M132.03 290.328C132.03 290.958 132.555 291.469 133.203 291.469C133.85 291.469 134.375 290.958 134.375 290.328C134.375 289.698 133.85 289.188 133.203 289.188C132.555 289.188 132.03 289.698 132.03 290.328Z" fill="black"/>
<path d="M117.889 290.328C117.889 290.958 118.414 291.469 119.061 291.469C119.709 291.469 120.234 290.958 120.234 290.328C120.234 289.698 119.709 289.188 119.061 289.188C118.414 289.188 117.889 289.698 117.889 290.328Z" fill="black"/>
<path d="M103.747 290.328C103.747 290.958 104.272 291.469 104.92 291.469C105.568 291.469 106.093 290.958 106.093 290.328C106.093 289.698 105.568 289.188 104.92 289.188C104.272 289.188 103.747 289.698 103.747 290.328Z" fill="black"/>
<path d="M89.6059 290.328C89.6059 290.958 90.1309 291.469 90.7786 291.469C91.4263 291.469 91.9513 290.958 91.9513 290.328C91.9513 289.698 91.4263 289.188 90.7786 289.188C90.1309 289.188 89.6059 289.698 89.6059 290.328Z" fill="black"/>
<path d="M75.4645 290.328C75.4645 290.958 75.9896 291.469 76.6372 291.469C77.2849 291.469 77.8099 290.958 77.8099 290.328C77.8099 289.698 77.2849 289.188 76.6372 289.188C75.9896 289.188 75.4645 289.698 75.4645 290.328Z" fill="black"/>
<path d="M132.03 11.1404C132.03 11.7702 132.555 12.2807 133.203 12.2807C133.85 12.2807 134.375 11.7702 134.375 11.1404C134.375 10.5106 133.85 10 133.203 10C132.555 10 132.03 10.5106 132.03 11.1404Z" fill="black"/>
<path d="M117.889 11.1404C117.889 11.7702 118.414 12.2807 119.061 12.2807C119.709 12.2807 120.234 11.7702 120.234 11.1404C120.234 10.5106 119.709 10 119.061 10C118.414 10 117.889 10.5106 117.889 11.1404Z" fill="black"/>
<path d="M103.747 11.1404C103.747 11.7702 104.272 12.2807 104.92 12.2807C105.568 12.2807 106.093 11.7702 106.093 11.1404C106.093 10.5106 105.568 10 104.92 10C104.272 10 103.747 10.5106 103.747 11.1404Z" fill="black"/>
<path d="M89.6059 11.1404C89.6059 11.7702 90.1309 12.2807 90.7786 12.2807C91.4262 12.2807 91.9512 11.7702 91.9512 11.1404C91.9512 10.5106 91.4262 10 90.7786 10C90.1309 10 89.6059 10.5106 89.6059 11.1404Z" fill="black"/>
<path d="M75.4645 11.1404C75.4645 11.7702 75.9896 12.2807 76.6372 12.2807C77.2849 12.2807 77.8099 11.7702 77.8099 11.1404C77.8099 10.5106 77.2849 10 76.6372 10C75.9896 10 75.4645 10.5106 75.4645 11.1404Z" fill="black"/>
<path d="M75.6025 11.1404C75.6025 11.7702 76.1276 12.2807 76.7752 12.2807C77.4229 12.2807 77.9479 11.7702 77.9479 11.1404C77.9479 10.5106 77.4229 10 76.7752 10C76.1276 10 75.6025 10.5106 75.6025 11.1404Z" fill="black"/>
<path d="M61.4612 11.1404C61.4612 11.7702 61.9863 12.2807 62.6339 12.2807C63.2816 12.2807 63.8066 11.7702 63.8066 11.1404C63.8066 10.5106 63.2816 10 62.6339 10C61.9863 10 61.4612 10.5106 61.4612 11.1404Z" fill="black"/>
<path d="M47.3199 11.1404C47.3199 11.7702 47.8449 12.2807 48.4926 12.2807C49.1402 12.2807 49.6652 11.7702 49.6652 11.1404C49.6652 10.5106 49.1402 10 48.4926 10C47.8449 10 47.3199 10.5106 47.3199 11.1404Z" fill="black"/>
<path d="M33.1785 11.1404C33.1785 11.7702 33.7036 12.2807 34.3512 12.2807C34.9989 12.2807 35.5239 11.7702 35.5239 11.1404C35.5239 10.5106 34.9989 10 34.3512 10C33.7036 10 33.1785 10.5106 33.1785 11.1404Z" fill="black"/>
<path d="M19.0372 11.1404C19.0372 11.7702 19.5622 12.2807 20.2099 12.2807C20.8575 12.2807 21.3825 11.7702 21.3825 11.1404C21.3825 10.5106 20.8575 10 20.2099 10C19.5622 10 19.0372 10.5106 19.0372 11.1404Z" fill="black"/>
<path d="M75.6025 290.06C75.6025 290.69 76.1276 291.2 76.7752 291.2C77.4229 291.2 77.9479 290.69 77.9479 290.06C77.9479 289.43 77.4229 288.919 76.7752 288.919C76.1276 288.919 75.6025 289.43 75.6025 290.06Z" fill="black"/>
<path d="M61.4612 290.06C61.4612 290.69 61.9863 291.2 62.6339 291.2C63.2816 291.2 63.8066 290.69 63.8066 290.06C63.8066 289.43 63.2816 288.92 62.6339 288.92C61.9863 288.92 61.4612 289.43 61.4612 290.06Z" fill="black"/>
<path d="M47.3199 290.06C47.3199 290.69 47.8449 291.2 48.4926 291.2C49.1402 291.2 49.6652 290.69 49.6652 290.06C49.6652 289.43 49.1402 288.92 48.4926 288.92C47.8449 288.92 47.3199 289.43 47.3199 290.06Z" fill="black"/>
<path d="M33.1785 290.06C33.1785 290.69 33.7036 291.2 34.3512 291.2C34.9989 291.2 35.5239 290.69 35.5239 290.06C35.5239 289.43 34.9989 288.92 34.3512 288.92C33.7036 288.92 33.1785 289.43 33.1785 290.06Z" fill="black"/>
<path d="M19.0372 290.06C19.0372 290.69 19.5622 291.2 20.2099 291.2C20.8575 291.2 21.3825 290.69 21.3825 290.06C21.3825 289.43 20.8575 288.92 20.2099 288.92C19.5622 288.92 19.0372 289.43 19.0372 290.06Z" fill="black"/>
<path d="M7.99999 11.1404C7.99999 11.7702 8.52503 12.2807 9.17269 12.2807C9.82036 12.2807 10.3454 11.7702 10.3454 11.1404C10.3454 10.5106 9.82036 10 9.17269 10C8.52503 10 7.99999 10.5106 7.99999 11.1404Z" fill="black"/>
<path d="M7.99999 25.0931C7.99999 25.7229 8.52503 26.2334 9.17269 26.2334C9.82036 26.2334 10.3454 25.7229 10.3454 25.0931C10.3454 24.4633 9.82036 23.9527 9.17269 23.9527C8.52503 23.9527 7.99999 24.4633 7.99999 25.0931Z" fill="black"/>
<path d="M7.99999 39.0457C7.99999 39.6755 8.52503 40.1861 9.17269 40.1861C9.82036 40.1861 10.3454 39.6755 10.3454 39.0457C10.3454 38.4159 9.82036 37.9053 9.17269 37.9053C8.52503 37.9053 7.99999 38.4159 7.99999 39.0457Z" fill="black"/>
<path d="M7.99999 53.0655C7.99999 53.6953 8.52503 54.2058 9.17269 54.2058C9.82036 54.2058 10.3454 53.6953 10.3454 53.0655C10.3454 52.4357 9.82036 51.9251 9.17269 51.9251C8.52503 51.9251 7.99999 52.4357 7.99999 53.0655Z" fill="black"/>
<path d="M7.99999 67.0182C7.99999 67.648 8.52503 68.1585 9.17269 68.1585C9.82036 68.1585 10.3454 67.648 10.3454 67.0182C10.3454 66.3884 9.82036 65.8778 9.17269 65.8778C8.52503 65.8778 7.99999 66.3884 7.99999 67.0182Z" fill="black"/>
<path d="M7.99999 80.9709C7.99999 81.6007 8.52503 82.1112 9.17269 82.1112C9.82036 82.1112 10.3454 81.6007 10.3454 80.9709C10.3454 80.3411 9.82036 79.8305 9.17269 79.8305C8.52503 79.8305 7.99999 80.3411 7.99999 80.9709Z" fill="black"/>
<path d="M7.99999 94.9235C7.99999 95.5533 8.52503 96.0639 9.17269 96.0639C9.82036 96.0639 10.3454 95.5533 10.3454 94.9235C10.3454 94.2937 9.82036 93.7831 9.17269 93.7831C8.52503 93.7831 7.99999 94.2937 7.99999 94.9235Z" fill="black"/>
<path d="M7.99999 108.876C7.99999 109.506 8.52503 110.017 9.17269 110.017C9.82036 110.017 10.3454 109.506 10.3454 108.876C10.3454 108.246 9.82036 107.736 9.17269 107.736C8.52503 107.736 7.99999 108.246 7.99999 108.876Z" fill="black"/>
<path d="M7.99999 122.829C7.99999 123.459 8.52503 123.969 9.17269 123.969C9.82036 123.969 10.3454 123.459 10.3454 122.829C10.3454 122.199 9.82036 121.689 9.17269 121.689C8.52503 121.689 7.99999 122.199 7.99999 122.829Z" fill="black"/>
<path d="M7.99999 136.782C7.99999 137.411 8.52503 137.922 9.17269 137.922C9.82036 137.922 10.3454 137.411 10.3454 136.782C10.3454 136.152 9.82036 135.641 9.17269 135.641C8.52503 135.641 7.99999 136.152 7.99999 136.782Z" fill="black"/>
<path d="M7.99999 150.734C7.99999 151.364 8.52503 151.875 9.17269 151.875C9.82036 151.875 10.3454 151.364 10.3454 150.734C10.3454 150.104 9.82036 149.594 9.17269 149.594C8.52503 149.594 7.99999 150.104 7.99999 150.734Z" fill="black"/>
<path d="M7.99999 164.687C7.99999 165.317 8.52503 165.827 9.17269 165.827C9.82036 165.827 10.3454 165.317 10.3454 164.687C10.3454 164.057 9.82036 163.547 9.17269 163.547C8.52503 163.547 7.99999 164.057 7.99999 164.687Z" fill="black"/>
<path d="M7.99999 178.707C7.99999 179.337 8.52503 179.847 9.17269 179.847C9.82036 179.847 10.3454 179.337 10.3454 178.707C10.3454 178.077 9.82036 177.566 9.17269 177.566C8.52503 177.566 7.99999 178.077 7.99999 178.707Z" fill="black"/>
<path d="M7.99999 192.659C7.99999 193.289 8.52503 193.8 9.17269 193.8C9.82036 193.8 10.3454 193.289 10.3454 192.659C10.3454 192.03 9.82036 191.519 9.17269 191.519C8.52503 191.519 7.99999 192.03 7.99999 192.659Z" fill="black"/>
<path d="M7.99999 206.612C7.99999 207.242 8.52503 207.752 9.17269 207.752C9.82036 207.752 10.3454 207.242 10.3454 206.612C10.3454 205.982 9.82036 205.472 9.17269 205.472C8.52503 205.472 7.99999 205.982 7.99999 206.612Z" fill="black"/>
<path d="M7.99999 220.565C7.99999 221.195 8.52503 221.705 9.17269 221.705C9.82036 221.705 10.3454 221.195 10.3454 220.565C10.3454 219.935 9.82036 219.424 9.17269 219.424C8.52503 219.424 7.99999 219.935 7.99999 220.565Z" fill="black"/>
<path d="M7.99999 234.517C7.99999 235.147 8.52503 235.658 9.17269 235.658C9.82036 235.658 10.3454 235.147 10.3454 234.517C10.3454 233.888 9.82036 233.377 9.17269 233.377C8.52503 233.377 7.99999 233.888 7.99999 234.517Z" fill="black"/>
<path d="M7.99999 248.47C7.99999 249.1 8.52503 249.611 9.17269 249.611C9.82036 249.611 10.3454 249.1 10.3454 248.47C10.3454 247.84 9.82036 247.33 9.17269 247.33C8.52503 247.33 7.99999 247.84 7.99999 248.47Z" fill="black"/>
<path d="M7.99999 262.423C7.99999 263.053 8.52503 263.563 9.17269 263.563C9.82036 263.563 10.3454 263.053 10.3454 262.423C10.3454 261.793 9.82036 261.282 9.17269 261.282C8.52503 261.282 7.99999 261.793 7.99999 262.423Z" fill="black"/>
<path d="M7.99999 276.375C7.99999 277.005 8.52503 277.516 9.17269 277.516C9.82036 277.516 10.3454 277.005 10.3454 276.375C10.3454 275.746 9.82036 275.235 9.17269 275.235C8.52503 275.235 7.99999 275.746 7.99999 276.375Z" fill="black"/>
<path d="M7.99999 290.328C7.99999 290.958 8.52503 291.469 9.17269 291.469C9.82036 291.469 10.3454 290.958 10.3454 290.328C10.3454 289.698 9.82036 289.188 9.17269 289.188C8.52503 289.188 7.99999 289.698 7.99999 290.328Z" fill="black"/>
<path d="M159.175 300.25L196.7 337.775" stroke="black" stroke-width="2" stroke-miterlimit="10"/>
<path d="M159.175 259.4L196.7 296.925" stroke="black" stroke-width="2" stroke-miterlimit="10"/>
<path d="M159.175 213.8L196.7 251.325" stroke="black" stroke-width="2" stroke-miterlimit="10"/>
<path d="M159.175 172.475L196.7 210" stroke="black" stroke-width="2" stroke-miterlimit="10"/>
<path d="M159.175 127.825L196.7 165.35" stroke="black" stroke-width="2" stroke-miterlimit="10"/>
<path d="M159.175 83.6501L196.7 121.175" stroke="black" stroke-width="2" stroke-miterlimit="10"/>
<path d="M159.175 41.375L196.7 78.9001" stroke="black" stroke-width="2" stroke-miterlimit="10"/>
<path d="M120.7 300.25L158.225 337.775" stroke="black" stroke-width="2" stroke-miterlimit="10"/>
<path d="M80.3251 300.25L117.85 337.775" stroke="black" stroke-width="2" stroke-miterlimit="10"/>
<path d="M39.475 300.25L77.0001 337.775" stroke="black" stroke-width="2" stroke-miterlimit="10"/>
<path d="M159.175 1H1V300.25H159.175V1Z" stroke="black" stroke-width="2" stroke-miterlimit="10"/>
<path d="M196.7 337.775H38.525L1 303.575V1H162.975L196.7 38.5251V337.775Z" stroke="black" stroke-width="2" stroke-miterlimit="10"/>
</svg>
