<svg width="282" height="479" viewBox="0 0 282 479" fill="none" xmlns="http://www.w3.org/2000/svg">
<path d="M224.944 420.601L276.754 472.438" stroke="black" stroke-width="2" stroke-miterlimit="10"/>
<path d="M224.944 364.171L276.754 416.008" stroke="black" stroke-width="2" stroke-miterlimit="10"/>
<path d="M224.944 301.179L276.754 353.016" stroke="black" stroke-width="2" stroke-miterlimit="10"/>
<path d="M224.944 244.092L276.754 295.929" stroke="black" stroke-width="2" stroke-miterlimit="10"/>
<path d="M224.944 182.413L276.754 234.25" stroke="black" stroke-width="2" stroke-miterlimit="10"/>
<path d="M224.944 121.39L276.754 173.227" stroke="black" stroke-width="2" stroke-miterlimit="10"/>
<path d="M224.944 62.9908L276.754 114.828" stroke="black" stroke-width="2" stroke-miterlimit="10"/>
<path d="M171.823 420.601L223.633 472.438" stroke="black" stroke-width="2" stroke-miterlimit="10"/>
<path d="M116.079 420.601L167.888 472.438" stroke="black" stroke-width="2" stroke-miterlimit="10"/>
<path d="M59.679 420.601L111.488 472.438" stroke="black" stroke-width="2" stroke-miterlimit="10"/>
<path d="M224.944 7.21683H6.55814V420.601H224.944V7.21683Z" stroke="black" stroke-width="2" stroke-miterlimit="10"/>
<path d="M276.754 472.438H58.3674L6.55814 425.194V7.21683H230.191L276.754 59.054V472.438Z" stroke="black" stroke-width="2" stroke-miterlimit="10"/>
<rect width="282" height="479" stroke="black"/>
</svg>
