<svg width="26" height="65" viewBox="0 0 26 65" fill="none" xmlns="http://www.w3.org/2000/svg">
<path d="M25.9 64.2H6.5L16.2 44.8L25.9 64.2Z" fill="#FFE66D"/>
<path d="M25.9 44.8H6.5L16.2 25.4L25.9 44.8Z" fill="#FFE66D"/>
<path d="M25.9 25.4H6.5L16.2 6L25.9 25.4Z" fill="#FFE66D"/>
<path d="M19.4 58.2H0L9.70001 38.8L19.4 58.2ZM3.29999 56.2H16.2L9.70001 43.3L3.29999 56.2Z" fill="black"/>
<path d="M19.4 38.8H0L9.70001 19.4L19.4 38.8ZM3.29999 36.8H16.2L9.70001 23.9L3.29999 36.8Z" fill="black"/>
<path d="M19.4 19.4H0L9.70001 0L19.4 19.4ZM3.29999 17.4H16.2L9.70001 4.5L3.29999 17.4Z" fill="black"/>
</svg>
