<svg width="48" height="79" viewBox="0 0 48 79" fill="none" xmlns="http://www.w3.org/2000/svg">
<path d="M34.9 7.29987H34.1H0.700012V70.2999V71.0999L8.60001 78.1999H42V15.1999L34.9 7.29987Z" fill="#FFE66D"/>
<path d="M39.3 64.0999L47.2 71.9999" stroke="black" stroke-miterlimit="10"/>
<path d="M39.3 55.4999L47.2 63.3999" stroke="black" stroke-miterlimit="10"/>
<path d="M39.3 45.8999L47.2 53.7999" stroke="black" stroke-miterlimit="10"/>
<path d="M39.3 37.1999L47.2 45.0999" stroke="black" stroke-miterlimit="10"/>
<path d="M39.3 27.7999L47.2 35.6999" stroke="black" stroke-miterlimit="10"/>
<path d="M39.3 18.4999L47.2 26.3999" stroke="black" stroke-miterlimit="10"/>
<path d="M39.3 9.59985L47.2 17.4999" stroke="black" stroke-miterlimit="10"/>
<path d="M31.2 64.0999L39.1 71.9999" stroke="black" stroke-miterlimit="10"/>
<path d="M22.7 64.0999L30.6 71.9999" stroke="black" stroke-miterlimit="10"/>
<path d="M14.1 64.0999L22 71.9999" stroke="black" stroke-miterlimit="10"/>
<path d="M39.3 1.09985H6V64.0999H39.3V1.09985Z" stroke="black" stroke-miterlimit="10"/>
<path d="M47.2 71.9999H13.9L6 64.7999V1.09985H40.1L47.2 8.99988V71.9999Z" stroke="black" stroke-miterlimit="10"/>
</svg>
